<svg width="192" height="192" viewBox="0 0 192 192" fill="none" xmlns="http://www.w3.org/2000/svg">
<path d="M96 10.8933L102.844 8.61209C131.52 -0.958174 162.121 16.7032 168.18 46.3407L169.624 53.3981L175.024 58.1743C197.659 78.2238 197.659 113.564 175.024 133.614L169.624 138.39L168.18 145.447C162.121 175.067 131.52 192.728 102.844 183.176L96 180.895L89.1562 183.176C60.4801 192.746 29.8791 175.085 23.8195 145.447L22.3759 138.39L16.9758 133.614C-5.65859 113.564 -5.65859 78.2238 16.9758 58.1743L22.3759 53.3981L23.8195 46.3407C29.8791 16.721 60.4801 -0.940352 89.174 8.61209L96.0178 10.8933H96Z" fill="#76D1FF"/>
<path d="M85.2888 88.08C79.7282 88.08 74.8628 86.1551 71.3874 82.5194C67.8942 78.8658 66.3259 73.9647 67.0566 69.0635C67.7516 64.4119 70.3715 60.3306 74.435 57.5681L80.6372 66.6575C79.1401 67.6734 78.1777 69.117 77.946 70.7032C77.7143 72.2181 78.2312 73.7508 79.3362 74.9092C80.958 76.5845 83.5957 77.3331 86.8037 76.9945C89.2988 76.7271 91.3484 76.0321 93.8435 74.6063L94.5743 74.1785L100.188 83.6422C99.9031 83.8026 99.618 83.9808 99.3328 84.1412L98.4239 82.5728L99.315 84.1412C95.4832 86.3334 91.9722 87.4918 87.9622 87.9195C87.0532 88.0087 86.1621 88.0621 85.2888 88.0621V88.08Z" fill="#111111"/>
<path d="M106.569 88.08C101.008 88.08 96.1425 86.1551 92.6672 82.5194C89.174 78.8658 87.6056 73.9647 88.3364 69.0635C89.0314 64.4119 91.6513 60.3306 95.7148 57.5681L101.917 66.6575C100.42 67.6734 99.4575 69.117 99.2258 70.7032C98.9941 72.2181 99.511 73.7508 100.616 74.9092C102.238 76.6024 104.893 77.3331 108.083 76.9945C111.434 76.638 113.787 75.4974 116.692 73.6617L122.555 82.9649C119.044 85.1749 114.999 87.3136 109.242 87.9195C108.333 88.0087 107.442 88.0621 106.569 88.0621V88.08Z" fill="#111111"/>
</svg>
