<svg width="24" height="24" viewBox="0 0 24 24" fill="none" xmlns="http://www.w3.org/2000/svg">
<path d="M19.4951 11.9995C19.4949 7.86198 16.1381 4.50739 12 4.50732C7.86181 4.50732 4.5051 7.86194 4.50488 11.9995C4.50488 16.1373 7.86167 19.4927 12 19.4927C16.1383 19.4926 19.4951 16.1372 19.4951 11.9995ZM20.9951 11.9995C20.9951 16.9662 16.9661 20.9926 12 20.9927C7.03382 20.9927 3.00488 16.9663 3.00488 11.9995C3.0051 7.03294 7.03395 3.00732 12 3.00732C16.966 3.00739 20.9949 7.03298 20.9951 11.9995Z" fill="#111111"/>
<circle cx="11.9998" cy="15.4567" r="0.75" fill="#111111"/>
<rect x="11.2498" y="7.79333" width="1.5" height="6.16516" rx="0.75" fill="#111111"/>
</svg>
