<svg width="72" height="72" viewBox="0 0 72 72" fill="none" xmlns="http://www.w3.org/2000/svg">
<path d="M46.127 9.46643L46.695 7.60164C46.8973 6.93755 47.6982 6.67659 48.2529 7.09399L52.0005 9.91395C52.3112 10.1477 52.7291 10.1802 53.0722 9.99736L57.2111 7.79131C57.8237 7.46477 58.5745 7.84652 58.6716 8.53391L59.3276 13.1779C59.382 13.5628 59.6545 13.8814 60.0263 13.9947L64.5129 15.3614C65.177 15.5637 65.438 16.3645 65.0206 16.9192L62.2006 20.6669C61.9669 20.9775 61.9343 21.3955 62.1172 21.7385L64.3232 25.8774C64.6498 26.49 64.268 27.2409 63.5806 27.3379L61.6504 27.6106" stroke="#DDDDDD"/>
<path d="M14.8401 35.0381C14.8401 23.3522 24.3134 13.8789 35.9993 13.8789V13.8789C47.6852 13.8789 57.1586 23.3522 57.1586 35.0381V36.9619C57.1586 48.6478 47.6852 58.1211 35.9993 58.1211V58.1211C24.3134 58.1211 14.8401 48.6478 14.8401 36.9619V35.0381Z" fill="#FFE5E3"/>
<path d="M33.1478 35.3834C33.1478 36.1667 32.5128 36.8016 31.7296 36.8016C30.9464 36.8016 30.3115 36.1667 30.3115 35.3834C30.3115 34.6002 30.9464 33.9653 31.7296 33.9653C32.5128 33.9653 33.1478 34.6002 33.1478 35.3834Z" fill="#111111"/>
<path d="M41.6878 35.3834C41.6878 36.1667 41.0529 36.8016 40.2697 36.8016C39.4865 36.8016 38.8516 36.1667 38.8516 35.3834C38.8516 34.6002 39.4865 33.9653 40.2697 33.9653C41.0529 33.9653 41.6878 34.6002 41.6878 35.3834Z" fill="#111111"/>
<path d="M35.9992 37.1836C36.4717 37.1836 36.9486 37.3355 37.3185 37.6386C37.6315 37.8951 37.678 38.3588 37.4215 38.6717C37.165 38.9845 36.7013 39.0283 36.3884 38.7719C36.3055 38.7043 36.1665 38.6488 35.9992 38.6488C35.8318 38.649 35.6927 38.7041 35.61 38.7719C35.2973 39.0281 34.8363 38.9839 34.5798 38.6717C34.3233 38.3588 34.3698 37.8951 34.6828 37.6386C35.0524 37.3361 35.5273 37.1838 35.9992 37.1836Z" fill="#111111"/>
<path d="M11.588 39.9763C11.4388 38.0848 12.8487 36.4024 14.7371 36.2184L14.8346 36.2089C16.7229 36.0249 18.3747 37.4091 18.5239 39.3006V39.3006C18.6731 41.192 17.2632 42.8744 15.3749 43.0584L15.2774 43.0679C13.389 43.2519 11.7372 41.8677 11.588 39.9763V39.9763Z" fill="#FFE5E3"/>
<path d="M53.4762 39.9763C53.327 38.0848 54.7369 36.4024 56.6253 36.2184L56.7227 36.2089C58.6111 36.0249 60.2629 37.4091 60.4121 39.3006V39.3006C60.5613 41.192 59.1514 42.8744 57.2631 43.0584L57.1656 43.0679C55.2772 43.2519 53.6254 41.8677 53.4762 39.9763V39.9763Z" fill="#FFE5E3"/>
<path d="M38.3535 43.4012C38.3535 44.7108 37.3002 45.7724 36.0009 45.7724C34.7015 45.7724 33.6482 44.7108 33.6482 43.4012C33.6482 42.0916 34.7015 41.03 36.0009 41.03C37.3002 41.03 38.3535 42.0916 38.3535 43.4012Z" fill="#111111"/>
<g opacity="0.76">
<path d="M30.5627 39.6383C30.5627 41.9781 28.6658 43.8749 26.326 43.8749C23.9862 43.8749 22.0894 41.9781 22.0894 39.6383C22.0894 37.2984 23.9862 35.4016 26.326 35.4016C28.6658 35.4016 30.5627 37.2984 30.5627 39.6383Z" fill="#FFBDC6"/>
<path d="M49.9086 39.6383C49.9086 41.9781 48.0118 43.8749 45.672 43.8749C43.3321 43.8749 41.4353 41.9781 41.4353 39.6383C41.4353 37.2984 43.3321 35.4016 45.672 35.4016C48.0118 35.4016 49.9086 37.2984 49.9086 39.6383Z" fill="#FFBDC6"/>
</g>
<path d="M29.1878 20.0264C29.3478 18.9662 29.9628 18.0904 30.8023 17.5176C31.1365 17.2898 31.5927 17.3777 31.8207 17.7119C32.0484 18.0461 31.9634 18.5027 31.6293 18.7307C31.087 19.1007 30.7291 19.6326 30.6366 20.245C30.4576 21.4315 31.4513 22.9059 33.689 22.668C34.5001 22.5818 35.1199 22.3405 35.7838 21.9625L35.7871 21.9601L35.8505 21.9234C35.8895 21.9006 35.9393 21.8722 35.9774 21.8499L36.7251 23.1089L36.7162 23.1104L36.7186 23.1137C36.6805 23.136 36.631 23.1642 36.5917 23.1872C36.5797 23.1942 36.5693 23.2027 36.5596 23.2084C36.5451 23.2167 36.5298 23.2252 36.5153 23.2335C35.7162 23.6891 34.9004 24.0114 33.8427 24.1238C30.8047 24.4464 28.8433 22.309 29.1878 20.0264Z" fill="#111111"/>
<path d="M34.7017 20.0264C34.8617 18.9662 35.4767 18.0904 36.3162 17.5176C36.6504 17.2898 37.1066 17.3777 37.3346 17.7119C37.5624 18.0461 37.4773 18.5027 37.1432 18.7307C36.6009 19.1007 36.243 19.6326 36.1506 20.245C35.9715 21.4315 36.9652 22.9059 39.2029 22.668C40.1777 22.5643 40.8807 22.2388 41.7304 21.7037C42.0727 21.4881 42.5252 21.5893 42.7409 21.9314C42.9565 22.2737 42.8525 22.7258 42.5103 22.9414C41.5567 23.5421 40.6364 23.9878 39.3566 24.1238C36.3186 24.4464 34.3572 22.309 34.7017 20.0264Z" fill="#111111"/>
</svg>
