<svg width="24" height="24" viewBox="0 0 24 24" fill="none" xmlns="http://www.w3.org/2000/svg">
<path d="M12 1.36166L12.8555 1.07651C16.44 -0.119772 20.2651 2.08789 21.0226 5.79259L21.203 6.67476L21.878 7.27179C24.7073 9.77797 24.7073 14.1955 21.878 16.7017L21.203 17.2987L21.0226 18.1809C20.2651 21.8834 16.44 24.091 12.8555 22.897L12 22.6118L11.1445 22.897C7.56001 24.0933 3.73489 21.8856 2.97744 18.1809L2.79699 17.2987L2.12197 16.7017C-0.707324 14.1955 -0.707324 9.77797 2.12197 7.27179L2.79699 6.67476L2.97744 5.79259C3.73489 2.09012 7.56001 -0.117544 11.1468 1.07651L12.0022 1.36166H12Z" fill="#76D1FF"/>
<path d="M10.6613 11.01C9.96627 11.01 9.35809 10.7694 8.92367 10.315C8.48702 9.85826 8.29098 9.24561 8.38232 8.63297C8.4692 8.05152 8.79668 7.54135 9.30462 7.19604L10.0799 8.33222C9.89276 8.4592 9.77246 8.63965 9.7435 8.83793C9.71454 9.02729 9.77914 9.21888 9.91726 9.36369C10.12 9.5731 10.4497 9.66667 10.8507 9.62434C11.1626 9.59092 11.4188 9.50404 11.7307 9.32581L11.822 9.27235L12.5238 10.4553C12.4881 10.4754 12.4525 10.4976 12.4168 10.5177L12.3032 10.3216L12.4146 10.5177C11.9356 10.7917 11.4968 10.9365 10.9955 10.99C10.8819 11.0011 10.7705 11.0078 10.6613 11.0078V11.01Z" fill="#111111"/>
<path d="M13.321 11.01C12.6259 11.01 12.0178 10.7694 11.5833 10.315C11.1467 9.85826 10.9506 9.24561 11.042 8.63297C11.1289 8.05152 11.4564 7.54135 11.9643 7.19604L12.7396 8.33222C12.5524 8.4592 12.4321 8.63965 12.4032 8.83793C12.3742 9.02729 12.4388 9.21888 12.5769 9.36369C12.7797 9.57533 13.1116 9.66667 13.5104 9.62434C13.9292 9.57978 14.2233 9.4372 14.5864 9.20774L15.3193 10.3706C14.8805 10.6469 14.3748 10.9142 13.6552 10.99C13.5416 11.0011 13.4302 11.0078 13.321 11.0078V11.01Z" fill="#111111"/>
</svg>
