<svg width="231" height="169" viewBox="0 0 231 169" fill="none" xmlns="http://www.w3.org/2000/svg">
<g clip-path="url(#clip0_739_3731)">
<path d="M112.27 2.74559L116.11 1.46563C132.2 -3.90419 149.37 6.00548 152.77 22.6349L153.58 26.5948L156.61 29.2747C169.31 40.5243 169.31 60.3536 156.61 71.6032L153.58 74.2831L152.77 78.243C149.37 94.8624 132.2 104.772 116.11 99.4123L112.27 98.1323L108.43 99.4123C92.3403 104.782 75.1703 94.8725 71.7703 78.243L70.9603 74.2831L67.9303 71.6032C55.2303 60.3536 55.2303 40.5243 67.9303 29.2747L70.9603 26.5948L71.7703 22.6349C75.1703 6.01547 92.3403 -3.89419 108.44 1.46563L112.28 2.74559H112.27Z" fill="#76D1FF"/>
<path d="M106.26 46.0547C103.14 46.0547 100.41 44.9747 98.4602 42.9347C96.5002 40.8847 95.6202 38.1347 96.0302 35.3847C96.4202 32.7747 97.8902 30.4847 100.17 28.9347L103.65 34.0347C102.81 34.6047 102.27 35.4147 102.14 36.3047C102.01 37.1547 102.3 38.0147 102.92 38.6647C103.83 39.6047 105.31 40.0247 107.11 39.8347C108.51 39.6847 109.66 39.2947 111.06 38.4947L111.47 38.2547L114.62 43.5647C114.46 43.6547 114.3 43.7547 114.14 43.8447L113.63 42.9647L114.13 43.8447C111.98 45.0747 110.01 45.7247 107.76 45.9647C107.25 46.0147 106.75 46.0447 106.26 46.0447V46.0547Z" fill="#111111"/>
<path d="M118.2 46.0547C115.08 46.0547 112.35 44.9747 110.4 42.9347C108.44 40.8847 107.56 38.1347 107.97 35.3847C108.36 32.7747 109.83 30.4847 112.11 28.9347L115.59 34.0347C114.75 34.6047 114.21 35.4147 114.08 36.3047C113.95 37.1547 114.24 38.0147 114.86 38.6647C115.77 39.6147 117.26 40.0247 119.05 39.8347C120.93 39.6347 122.25 38.9947 123.88 37.9647L127.17 43.1847C125.2 44.4247 122.93 45.6247 119.7 45.9647C119.19 46.0147 118.69 46.0447 118.2 46.0447V46.0547Z" fill="#111111"/>
<path d="M0.370117 130.731H5.70012V156.48H21.7901V161.33H0.370117V130.721V130.731Z" fill="#111111"/>
<path d="M22.1602 161.71H-0.00976562V130.351H6.07023V156.1H22.1602V161.7V161.71ZM0.740234 160.96H21.4102V156.86H5.32023V131.111H0.740234V160.97V160.96Z" fill="#111111"/>
<path d="M27.0703 129.681H32.8003V134.711H27.0703V129.681ZM27.2903 138.251H32.6203V161.34H27.2903V138.251Z" fill="#111111"/>
<path d="M33.0004 161.71H26.9204V137.871H33.0004V161.71ZM27.6704 160.96H32.2504V138.621H27.6704V160.96ZM33.1704 135.091H26.6904V129.311H33.1704V135.091ZM27.4504 134.341H32.4304V130.061H27.4504V134.341Z" fill="#111111"/>
<path d="M47.4401 161.73C46.4801 161.73 45.5801 161.61 44.7601 161.38C43.9401 161.15 43.2201 160.77 42.6201 160.24C42.0201 159.71 41.5601 159.02 41.2301 158.16C40.9101 157.3 40.7401 156.23 40.7401 154.95V142.801H37.8101V138.251H40.7401V131.911H46.0701V138.251H52.2801V142.801H46.0701V154.12C46.0701 155.14 46.3201 155.88 46.8101 156.33C47.3001 156.78 48.0101 157.01 48.9101 157.01C50.0501 157.01 51.1401 156.75 52.1901 156.22V160.55C51.5201 160.93 50.8101 161.22 50.0501 161.43C49.2901 161.63 48.4201 161.74 47.4301 161.74L47.4401 161.73Z" fill="#111111"/>
<path d="M47.4402 162.11C46.4502 162.11 45.5102 161.99 44.6602 161.75C43.7902 161.5 43.0202 161.09 42.3802 160.54C41.7302 159.98 41.2302 159.23 40.8902 158.31C40.5502 157.41 40.3802 156.29 40.3802 154.96V143.181H37.4502V137.881H40.3802V131.541H46.4602V137.881H52.6702V143.181H46.4602V154.131C46.4602 155.04 46.6702 155.69 47.0802 156.06C47.5002 156.44 48.1202 156.64 48.9302 156.64C50.0002 156.64 51.0502 156.39 52.0402 155.89L52.5802 155.62V160.77L52.3902 160.88C51.6902 161.27 50.9402 161.58 50.1602 161.79C49.3702 162 48.4602 162.11 47.4402 162.11ZM38.2002 142.431H41.1302V154.96C41.1302 156.19 41.2902 157.23 41.5902 158.04C41.8902 158.84 42.3202 159.49 42.8702 159.97C43.4302 160.45 44.1002 160.81 44.8702 161.03C46.4702 161.48 48.5402 161.45 49.9702 161.07C50.6202 160.9 51.2502 160.65 51.8302 160.34V156.82C50.9002 157.2 49.9202 157.4 48.9302 157.4C47.9402 157.4 47.1402 157.14 46.5802 156.62C46.0102 156.1 45.7102 155.26 45.7102 154.131V142.431H51.9202V138.631H45.7102V132.291H41.1302V138.631H38.2002V142.431Z" fill="#111111"/>
<path d="M65.5499 161.73C64.5899 161.73 63.6899 161.61 62.8699 161.38C62.0499 161.15 61.3299 160.77 60.7299 160.24C60.1299 159.71 59.6699 159.02 59.3399 158.16C59.0199 157.3 58.8499 156.23 58.8499 154.95V142.801H55.9199V138.251H58.8499V131.911H64.1799V138.251H70.3899V142.801H64.1799V154.12C64.1799 155.14 64.4299 155.88 64.9199 156.33C65.4099 156.78 66.1199 157.01 67.0199 157.01C68.1599 157.01 69.2499 156.75 70.2999 156.22V160.55C69.6299 160.93 68.9199 161.22 68.1599 161.43C67.3999 161.63 66.5299 161.74 65.5399 161.74L65.5499 161.73Z" fill="#111111"/>
<path d="M65.5501 162.11C64.5601 162.11 63.6201 161.99 62.7701 161.75C61.9001 161.5 61.1301 161.09 60.4901 160.54C59.8401 159.98 59.3401 159.23 59.0001 158.31C58.6601 157.41 58.4901 156.29 58.4901 154.96V143.181H55.5601V137.881H58.4901V131.541H64.5701V137.881H70.7801V143.181H64.5701V154.131C64.5701 155.04 64.7801 155.69 65.1901 156.06C65.6101 156.44 66.2301 156.64 67.0401 156.64C68.1101 156.64 69.1601 156.39 70.1501 155.89L70.6901 155.62V160.77L70.5001 160.88C69.8001 161.27 69.0501 161.58 68.2701 161.79C67.4801 162 66.5701 162.11 65.5501 162.11ZM56.3101 142.431H59.2401V154.96C59.2401 156.19 59.4001 157.23 59.7001 158.04C60.0001 158.84 60.4301 159.49 60.9801 159.97C61.5401 160.45 62.2101 160.81 62.9801 161.03C64.5801 161.48 66.6501 161.45 68.0801 161.07C68.7301 160.9 69.3601 160.65 69.9401 160.34V156.82C69.0101 157.2 68.0301 157.4 67.0401 157.4C66.0501 157.4 65.2501 157.14 64.6901 156.62C64.1201 156.1 63.8201 155.26 63.8201 154.131V142.431H70.0301V138.631H63.8201V132.291H59.2401V138.631H56.3101V142.431Z" fill="#111111"/>
<path d="M76.1602 129.421H81.4902V161.34H76.1602V129.421Z" fill="#111111"/>
<path d="M81.87 161.71H75.79V129.041H81.87V161.71ZM76.54 160.96H81.12V129.791H76.54V160.96Z" fill="#111111"/>
<path d="M99.1103 161.861C97.4503 161.861 95.9003 161.571 94.4503 160.991C93.0103 160.411 91.7503 159.591 90.6903 158.541C89.6303 157.491 88.7903 156.231 88.1803 154.761C87.5703 153.291 87.2603 151.661 87.2603 149.881V149.791C87.2603 148.131 87.5403 146.571 88.0903 145.111C88.6403 143.651 89.4203 142.381 90.4303 141.281C91.4403 140.191 92.6203 139.331 93.9903 138.701C95.3603 138.071 96.8803 137.761 98.5403 137.761C100.38 137.761 101.99 138.091 103.37 138.771C104.75 139.441 105.91 140.341 106.82 141.481C107.73 142.621 108.43 143.941 108.9 145.441C109.37 146.941 109.6 148.521 109.6 150.181C109.6 150.411 109.6 150.651 109.58 150.901C109.56 151.151 109.54 151.401 109.51 151.661H92.5503C92.8403 153.561 93.5903 155.001 94.8003 156.011C96.0103 157.021 97.4703 157.521 99.1903 157.521C100.5 157.521 101.64 157.291 102.6 156.821C103.56 156.351 104.51 155.671 105.44 154.771L108.54 157.521C107.43 158.831 106.11 159.881 104.58 160.671C103.05 161.461 101.22 161.851 99.0903 161.851L99.1103 161.861ZM104.35 148.181C104.26 147.331 104.07 146.541 103.78 145.801C103.49 145.061 103.1 144.421 102.6 143.881C102.1 143.341 101.51 142.911 100.83 142.591C100.14 142.271 99.3703 142.111 98.4903 142.111C96.8603 142.111 95.5103 142.671 94.4503 143.791C93.3903 144.911 92.7403 146.381 92.5003 148.181H104.35Z" fill="#111111"/>
<path d="M99.1104 162.241C97.4104 162.241 95.7904 161.941 94.3104 161.341C92.8304 160.741 91.5204 159.891 90.4304 158.811C89.3404 157.731 88.4604 156.421 87.8304 154.901C87.2004 153.391 86.8804 151.701 86.8804 149.881C86.8804 148.061 87.1704 146.471 87.7404 144.981C88.3104 143.481 89.1204 142.161 90.1504 141.031C91.1904 139.911 92.4204 139.011 93.8304 138.361C95.2404 137.711 96.8304 137.391 98.5304 137.391C100.41 137.391 102.1 137.741 103.52 138.431C104.95 139.121 106.16 140.071 107.1 141.241C108.04 142.411 108.76 143.781 109.24 145.321C109.71 146.851 109.96 148.491 109.96 150.181C109.96 150.421 109.96 150.671 109.94 150.921C109.92 151.181 109.9 151.441 109.87 151.711L109.83 152.041H92.9804C93.3004 153.621 93.9804 154.861 95.0204 155.731C96.1504 156.671 97.5504 157.151 99.1704 157.151C100.42 157.151 101.51 156.931 102.42 156.491C103.34 156.041 104.27 155.371 105.17 154.501L105.42 154.261L109.06 157.491L108.82 157.771C107.68 159.111 106.31 160.201 104.75 161.011C103.17 161.821 101.27 162.231 99.0904 162.231L99.1104 162.241ZM98.5404 138.151C96.9404 138.151 95.4604 138.451 94.1504 139.061C92.8304 139.661 91.6704 140.501 90.7104 141.551C89.7404 142.601 88.9804 143.851 88.4504 145.261C87.9104 146.671 87.6404 148.201 87.6404 149.801C87.6404 151.611 87.9404 153.201 88.5304 154.621C89.1204 156.041 89.9404 157.271 90.9604 158.281C91.9804 159.291 93.2104 160.091 94.6004 160.651C95.9904 161.211 97.5104 161.501 99.1204 161.501C101.18 161.501 102.97 161.121 104.43 160.361C105.8 159.661 107.01 158.721 108.03 157.581L105.46 155.301C104.58 156.111 103.68 156.741 102.77 157.181C101.76 157.671 100.56 157.921 99.2004 157.921C97.4004 157.921 95.8404 157.381 94.5704 156.321C93.2904 155.261 92.4904 153.721 92.1904 151.741L92.1204 151.311H109.18C109.19 151.171 109.2 151.031 109.21 150.901C109.22 150.661 109.23 150.431 109.23 150.201C109.23 148.591 109 147.031 108.55 145.571C108.1 144.121 107.42 142.831 106.54 141.741C105.66 140.651 104.54 139.781 103.21 139.131C101.88 138.491 100.31 138.161 98.5404 138.161V138.151ZM104.77 148.551H92.0804L92.1304 148.131C92.3704 146.251 93.0604 144.701 94.1704 143.531C95.3004 142.331 96.7604 141.731 98.4904 141.731C99.4104 141.731 100.25 141.901 100.99 142.251C101.72 142.591 102.35 143.051 102.88 143.631C103.4 144.201 103.83 144.881 104.13 145.671C104.43 146.451 104.63 147.281 104.72 148.151L104.76 148.561L104.77 148.551ZM92.9404 147.801H103.93C103.83 147.151 103.67 146.521 103.44 145.931C103.17 145.231 102.79 144.631 102.33 144.121C101.87 143.621 101.31 143.211 100.68 142.921C100.05 142.621 99.3104 142.471 98.5004 142.471C96.9604 142.471 95.7304 142.981 94.7304 144.041C93.8104 145.011 93.2104 146.271 92.9504 147.801H92.9404Z" fill="#111111"/>
<path d="M127.51 130.731H138.92C141.31 130.731 143.5 131.121 145.5 131.891C147.5 132.661 149.22 133.731 150.66 135.101C152.1 136.471 153.22 138.081 154 139.931C154.79 141.781 155.18 143.791 155.18 145.941V146.031C155.18 148.191 154.79 150.201 154 152.061C153.21 153.931 152.1 155.54 150.66 156.91C149.22 158.28 147.5 159.36 145.5 160.15C143.5 160.94 141.31 161.33 138.92 161.33H127.51V130.721V130.731ZM138.88 156.49C140.48 156.49 141.94 156.24 143.25 155.72C144.56 155.21 145.68 154.491 146.6 153.571C147.52 152.651 148.23 151.551 148.74 150.281C149.25 149.011 149.51 147.621 149.51 146.131V146.041C149.51 144.551 149.25 143.161 148.74 141.871C148.23 140.581 147.52 139.481 146.6 138.561C145.68 137.641 144.57 136.911 143.25 136.391C141.94 135.861 140.48 135.601 138.88 135.601H132.85V156.5H138.88V156.49Z" fill="#111111"/>
<path d="M138.92 161.71H127.13V130.351H138.92C141.34 130.351 143.6 130.751 145.64 131.531C147.67 132.321 149.45 133.421 150.92 134.821C152.39 136.221 153.55 137.891 154.35 139.781C155.15 141.671 155.56 143.741 155.56 145.941C155.56 148.141 155.15 150.301 154.35 152.211C153.55 154.111 152.39 155.79 150.92 157.19C149.45 158.59 147.67 159.7 145.64 160.5C143.61 161.3 141.35 161.71 138.92 161.71ZM127.88 160.96H138.92C141.25 160.96 143.42 160.57 145.36 159.81C147.3 159.04 149 157.98 150.4 156.65C151.8 155.32 152.9 153.731 153.66 151.921C154.42 150.111 154.81 148.131 154.81 146.031C154.81 143.931 154.42 141.871 153.66 140.081C152.9 138.291 151.8 136.701 150.4 135.371C149 134.041 147.31 132.991 145.36 132.231C143.42 131.481 141.25 131.101 138.92 131.101H127.88V160.96ZM138.88 156.86H132.47V135.211H138.88C140.52 135.211 142.04 135.491 143.39 136.031C144.74 136.571 145.91 137.331 146.86 138.291C147.81 139.241 148.56 140.401 149.08 141.731C149.61 143.061 149.87 144.511 149.87 146.041C149.87 147.661 149.6 149.101 149.08 150.421C148.55 151.741 147.81 152.891 146.86 153.841C145.91 154.8 144.74 155.55 143.39 156.08C142.04 156.61 140.53 156.87 138.88 156.87V156.86ZM133.22 156.11H138.88C140.43 156.11 141.86 155.86 143.12 155.37C144.38 154.88 145.46 154.181 146.34 153.301C147.22 152.421 147.91 151.351 148.4 150.131C148.89 148.911 149.14 147.561 149.14 146.121C149.14 144.601 148.89 143.241 148.4 142.001C147.91 140.771 147.22 139.691 146.34 138.811C145.46 137.931 144.38 137.231 143.12 136.721C141.86 136.211 140.44 135.961 138.89 135.961H133.23V156.11H133.22Z" fill="#111111"/>
<path d="M175.39 161.341V158.501C174.6 159.431 173.6 160.221 172.37 160.861C171.15 161.501 169.66 161.821 167.91 161.821C166.8 161.821 165.75 161.671 164.76 161.361C163.77 161.051 162.9 160.601 162.16 160.001C161.42 159.401 160.82 158.661 160.37 157.771C159.92 156.881 159.69 155.851 159.69 154.691V154.601C159.69 153.321 159.92 152.201 160.39 151.261C160.86 150.311 161.51 149.531 162.34 148.901C163.17 148.271 164.16 147.811 165.31 147.501C166.46 147.191 167.71 147.041 169.05 147.041C170.39 147.041 171.64 147.131 172.61 147.301C173.58 147.471 174.53 147.711 175.43 148.001V147.561C175.43 145.961 174.94 144.731 173.97 143.891C172.99 143.051 171.59 142.621 169.75 142.621C168.44 142.621 167.27 142.751 166.25 143.011C165.23 143.271 164.19 143.621 163.15 144.061L161.71 139.821C162.99 139.241 164.3 138.771 165.65 138.421C166.99 138.071 168.61 137.901 170.5 137.901C173.94 137.901 176.49 138.751 178.15 140.461C179.81 142.171 180.64 144.561 180.64 147.651V161.341H175.39ZM175.52 151.681C174.85 151.421 174.06 151.201 173.14 151.021C172.22 150.851 171.25 150.761 170.23 150.761C168.57 150.761 167.27 151.081 166.34 151.721C165.41 152.361 164.94 153.241 164.94 154.341V154.431C164.94 155.541 165.37 156.381 166.23 156.971C167.09 157.561 168.15 157.841 169.4 157.841C170.28 157.841 171.08 157.721 171.83 157.491C172.58 157.261 173.22 156.931 173.78 156.511C174.33 156.091 174.76 155.581 175.07 154.981C175.38 154.381 175.53 153.721 175.53 152.991V151.681H175.52Z" fill="#111111"/>
<path d="M167.91 162.191C166.77 162.191 165.67 162.031 164.65 161.711C163.62 161.391 162.7 160.911 161.92 160.291C161.14 159.661 160.5 158.871 160.03 157.941C159.55 157.001 159.31 155.911 159.31 154.691C159.31 153.271 159.56 152.091 160.05 151.091C160.54 150.101 161.23 149.261 162.11 148.601C162.98 147.951 164.02 147.451 165.21 147.141C166.39 146.831 167.68 146.671 169.04 146.671C170.4 146.671 171.67 146.761 172.67 146.941C173.48 147.091 174.28 147.271 175.05 147.501C175.04 146.031 174.6 144.951 173.72 144.181C172.82 143.401 171.48 143.001 169.75 143.001C168.48 143.001 167.33 143.131 166.35 143.381C165.35 143.641 164.32 143.991 163.3 144.411L162.93 144.571L161.25 139.631L161.56 139.491C162.85 138.901 164.2 138.431 165.56 138.071C166.92 137.711 168.59 137.531 170.51 137.531C174.04 137.531 176.7 138.431 178.43 140.201C180.15 141.971 181.03 144.481 181.03 147.651V161.711H175.03V159.441C174.33 160.111 173.51 160.691 172.56 161.191C171.29 161.861 169.73 162.191 167.93 162.191H167.91ZM169.05 147.421C167.75 147.421 166.52 147.571 165.41 147.871C164.31 148.161 163.36 148.611 162.57 149.211C161.79 149.801 161.17 150.551 160.74 151.441C160.3 152.331 160.08 153.401 160.08 154.621C160.08 155.841 160.29 156.791 160.72 157.621C161.14 158.461 161.72 159.171 162.41 159.731C163.11 160.301 163.95 160.731 164.89 161.021C165.84 161.311 166.86 161.461 167.93 161.461C169.61 161.461 171.05 161.151 172.22 160.541C173.39 159.921 174.37 159.161 175.12 158.271L175.78 157.491V160.981H180.28V147.671C180.28 144.701 179.48 142.361 177.89 140.741C176.31 139.121 173.82 138.301 170.51 138.301C168.65 138.301 167.05 138.471 165.75 138.811C164.54 139.131 163.34 139.541 162.18 140.051L163.39 143.591C164.32 143.221 165.26 142.911 166.17 142.671C167.22 142.401 168.43 142.261 169.76 142.261C171.68 142.261 173.18 142.721 174.22 143.621C175.28 144.541 175.81 145.871 175.81 147.581V148.531L175.32 148.371C174.43 148.081 173.5 147.851 172.55 147.681C171.6 147.511 170.42 147.421 169.05 147.421ZM169.4 158.221C168.07 158.221 166.94 157.901 166.02 157.281C165.06 156.631 164.57 155.671 164.57 154.431C164.57 153.111 165.1 152.121 166.13 151.411C167.12 150.731 168.5 150.381 170.23 150.381C171.27 150.381 172.27 150.471 173.21 150.651C174.14 150.831 174.97 151.051 175.66 151.321L175.9 151.411V152.981C175.9 153.771 175.73 154.491 175.4 155.141C175.07 155.781 174.6 156.341 174 156.801C173.41 157.251 172.72 157.601 171.94 157.841C171.16 158.081 170.31 158.211 169.4 158.211V158.221ZM170.23 151.131C168.65 151.131 167.42 151.431 166.55 152.031C165.72 152.601 165.31 153.361 165.31 154.341C165.31 155.411 165.68 156.141 166.43 156.651C167.22 157.191 168.22 157.461 169.39 157.461C170.22 157.461 171 157.351 171.7 157.131C172.4 156.911 173.02 156.601 173.53 156.211C174.04 155.821 174.44 155.351 174.71 154.811C174.99 154.271 175.13 153.661 175.13 152.991V151.941C174.53 151.731 173.83 151.541 173.05 151.391C172.16 151.221 171.2 151.131 170.21 151.131H170.23Z" fill="#111111"/>
<path d="M191.83 168.47C190.72 168.47 189.74 168.35 188.88 168.1C188.02 167.85 187.18 167.51 186.37 167.07L188.16 163.14C188.66 163.4 189.16 163.61 189.67 163.77C190.18 163.93 190.71 164.01 191.27 164.01C192.03 164.01 192.65 163.82 193.15 163.44C193.65 163.06 194.11 162.36 194.55 161.34L184.93 138.251H190.57L197.13 155.39L203.12 138.251H208.63L199.45 161.99C198.98 163.18 198.5 164.19 198.01 165.01C197.51 165.83 196.96 166.49 196.35 167C195.74 167.51 195.07 167.88 194.34 168.12C193.61 168.35 192.78 168.47 191.85 168.47H191.83Z" fill="#111111"/>
<path d="M191.83 168.84C190.69 168.84 189.66 168.71 188.78 168.45C187.9 168.2 187.03 167.84 186.19 167.39L185.88 167.22L187.98 162.6L188.33 162.79C188.8 163.04 189.29 163.24 189.78 163.4C190.25 163.55 190.75 163.62 191.26 163.62C191.94 163.62 192.48 163.46 192.91 163.13C193.33 162.81 193.74 162.2 194.13 161.33L184.36 137.871H190.82L197.11 154.29L202.85 137.871H209.17L199.79 162.12C199.32 163.33 198.82 164.36 198.32 165.2C197.81 166.05 197.22 166.75 196.58 167.28C195.93 167.82 195.22 168.22 194.44 168.46C193.67 168.7 192.8 168.83 191.83 168.83V168.84ZM186.85 166.9C187.54 167.25 188.25 167.53 188.98 167.74C189.8 167.98 190.76 168.1 191.83 168.1C192.72 168.1 193.52 167.99 194.21 167.77C194.89 167.55 195.53 167.2 196.1 166.72C196.68 166.24 197.21 165.6 197.68 164.82C198.16 164.02 198.64 163.03 199.09 161.86L208.08 138.631H203.38L197.14 156.49L190.31 138.631H185.49L194.95 161.34L194.89 161.49C194.42 162.58 193.93 163.32 193.37 163.74C192.81 164.17 192.1 164.39 191.26 164.39C190.67 164.39 190.1 164.3 189.55 164.13C189.14 164 188.73 163.84 188.33 163.65L186.85 166.91V166.9Z" fill="#111111"/>
<path d="M221.27 161.781C219.61 161.781 217.93 161.491 216.22 160.901C214.51 160.311 212.93 159.441 211.48 158.291L213.84 154.701C215.09 155.631 216.37 156.341 217.67 156.821C218.97 157.301 220.21 157.541 221.41 157.541C222.61 157.541 223.43 157.311 224.05 156.861C224.68 156.411 224.99 155.811 224.99 155.051V154.961C224.99 154.521 224.85 154.151 224.57 153.831C224.29 153.511 223.91 153.231 223.43 153.001C222.95 152.771 222.39 152.551 221.77 152.351C221.14 152.151 220.49 151.941 219.82 151.741C218.97 151.511 218.12 151.231 217.26 150.911C216.4 150.591 215.63 150.181 214.94 149.671C214.25 149.161 213.69 148.531 213.26 147.771C212.82 147.011 212.6 146.081 212.6 144.981V144.891C212.6 143.811 212.81 142.841 213.23 141.971C213.65 141.101 214.24 140.361 214.98 139.741C215.72 139.131 216.6 138.661 217.6 138.341C218.61 138.021 219.68 137.861 220.81 137.861C222.27 137.861 223.74 138.101 225.23 138.571C226.72 139.041 228.07 139.691 229.3 140.511L227.2 144.291C226.09 143.621 224.97 143.091 223.83 142.691C222.69 142.291 221.64 142.101 220.68 142.101C219.66 142.101 218.87 142.321 218.3 142.751C217.73 143.191 217.45 143.741 217.45 144.411V144.501C217.45 144.911 217.6 145.261 217.89 145.571C218.18 145.881 218.57 146.151 219.05 146.401C219.53 146.651 220.09 146.881 220.71 147.101C221.34 147.321 221.98 147.531 222.66 147.731C223.51 147.991 224.35 148.301 225.2 148.651C226.04 149.001 226.81 149.431 227.49 149.941C228.17 150.451 228.74 151.071 229.17 151.791C229.61 152.521 229.83 153.401 229.83 154.451V154.541C229.83 155.761 229.61 156.821 229.17 157.731C228.73 158.631 228.13 159.381 227.36 159.981C226.59 160.581 225.68 161.031 224.63 161.331C223.58 161.631 222.46 161.791 221.26 161.791L221.27 161.781Z" fill="#111111"/>
<path d="M221.27 162.151C219.58 162.151 217.84 161.851 216.1 161.251C214.36 160.651 212.73 159.751 211.25 158.581L210.98 158.371L213.75 154.161L214.07 154.401C215.29 155.311 216.55 156.001 217.8 156.471C219.05 156.931 220.26 157.171 221.41 157.171C222.46 157.171 223.28 156.971 223.84 156.561C224.37 156.181 224.62 155.691 224.62 155.051C224.62 154.621 224.51 154.331 224.3 154.071C224.06 153.791 223.72 153.541 223.28 153.331C222.81 153.101 222.27 152.891 221.67 152.701C221.04 152.501 220.4 152.291 219.73 152.091C218.9 151.861 218.03 151.581 217.15 151.261C216.26 150.931 215.45 150.491 214.74 149.971C214.02 149.431 213.42 148.761 212.96 147.961C212.49 147.151 212.25 146.151 212.25 144.981C212.25 143.811 212.48 142.731 212.92 141.811C213.36 140.891 213.98 140.101 214.77 139.461C215.55 138.821 216.47 138.331 217.52 138.001C219.89 137.251 222.67 137.371 225.38 138.231C226.9 138.711 228.3 139.381 229.54 140.221L229.83 140.411L227.37 144.831L227.04 144.631C225.96 143.981 224.85 143.451 223.75 143.071C221.54 142.311 219.56 142.321 218.57 143.071C218.09 143.431 217.86 143.881 217.86 144.431C217.86 144.831 217.97 145.091 218.19 145.331C218.45 145.601 218.81 145.861 219.25 146.081C219.71 146.321 220.25 146.551 220.86 146.761C221.48 146.981 222.13 147.191 222.79 147.391C223.64 147.651 224.5 147.971 225.36 148.321C226.23 148.681 227.03 149.131 227.74 149.651C228.46 150.191 229.06 150.851 229.52 151.611C229.99 152.391 230.23 153.351 230.23 154.461C230.23 155.821 230 156.951 229.54 157.901C229.08 158.851 228.43 159.651 227.62 160.281C226.82 160.901 225.86 161.381 224.76 161.701C223.68 162.011 222.51 162.171 221.29 162.171L221.27 162.151ZM211.98 158.201C213.33 159.221 214.79 160.001 216.34 160.541C219.18 161.521 222.1 161.661 224.53 160.961C225.53 160.671 226.41 160.241 227.14 159.671C227.86 159.111 228.44 158.401 228.85 157.561C229.26 156.711 229.47 155.701 229.47 154.541C229.47 153.481 229.27 152.651 228.87 151.991C228.46 151.311 227.93 150.721 227.28 150.241C226.62 149.751 225.88 149.341 225.07 149.001C224.23 148.661 223.39 148.351 222.57 148.101C221.9 147.901 221.24 147.681 220.61 147.461C219.97 147.241 219.39 147.001 218.9 146.741C218.38 146.471 217.96 146.171 217.64 145.841C217.28 145.461 217.1 145.021 217.1 144.511C217.1 143.631 217.44 142.981 218.1 142.471C219.31 141.541 221.52 141.501 223.98 142.351C225.02 142.711 226.06 143.191 227.08 143.781L228.82 140.641C227.71 139.931 226.47 139.351 225.14 138.931C222.58 138.121 219.96 138.001 217.74 138.701C216.78 139.001 215.94 139.451 215.24 140.031C214.54 140.611 213.99 141.311 213.59 142.131C213.19 142.951 212.99 143.881 212.99 144.891C212.99 146.011 213.19 146.891 213.59 147.581C214 148.291 214.53 148.891 215.17 149.371C215.82 149.851 216.57 150.261 217.39 150.561C218.25 150.881 219.1 151.151 219.92 151.381C220.6 151.591 221.25 151.791 221.88 152.001C222.51 152.211 223.09 152.431 223.59 152.671C224.11 152.921 224.54 153.231 224.85 153.591C225.19 153.981 225.36 154.441 225.36 154.971C225.36 155.941 224.99 156.651 224.26 157.171C223.57 157.671 222.61 157.921 221.4 157.921C220.19 157.921 218.86 157.671 217.53 157.171C216.32 156.721 215.11 156.071 213.93 155.231L211.97 158.201H211.98Z" fill="#111111"/>
</g>
<defs>
<clipPath id="clip0_739_3731">
<rect width="230.22" height="168.84" fill="white"/>
</clipPath>
</defs>
</svg>
