<svg width="428" height="162" viewBox="0 0 428 162" fill="none" xmlns="http://www.w3.org/2000/svg">
<path d="M83.41 42.2127L86.5047 41.1812C99.4717 36.8536 113.309 44.8398 116.049 58.2416L116.702 61.4328L119.144 63.5926C129.379 72.6587 129.379 88.6392 119.144 97.7053L116.702 99.8651L116.049 103.056C113.309 116.45 99.4717 124.436 86.5047 120.117L83.41 119.085L80.3153 120.117C67.3483 124.444 53.511 116.458 50.7709 103.056L50.1181 99.8651L47.6762 97.7053C37.4413 88.6392 37.4413 72.6587 47.6762 63.5926L50.1181 61.4328L50.7709 58.2416C53.511 44.8479 67.3483 36.8617 80.3234 41.1812L83.4181 42.2127H83.41Z" fill="#76D1FF"/>
<path d="M78.5655 77.1156C76.0511 77.1156 73.851 76.2452 72.2795 74.6011C70.6999 72.949 69.9907 70.7328 70.3212 68.5166C70.6355 66.4132 71.8201 64.5676 73.6576 63.3185L76.4621 67.4286C75.7852 67.888 75.35 68.5407 75.2452 69.258C75.1405 69.943 75.3742 70.6361 75.8738 71.1599C76.6072 71.9175 77.7999 72.256 79.2506 72.1028C80.3788 71.9819 81.3056 71.6676 82.4339 71.0229L82.7643 70.8295L85.3029 75.1089C85.174 75.1814 85.045 75.262 84.9161 75.3345L84.5051 74.6253L84.908 75.3345C83.1753 76.3258 81.5877 76.8496 79.7744 77.043C79.3634 77.0833 78.9604 77.1075 78.5655 77.1075V77.1156Z" fill="#111111"/>
<path d="M88.1881 77.1156C85.6737 77.1156 83.4736 76.2452 81.9021 74.6011C80.3225 72.949 79.6133 70.7328 79.9437 68.5166C80.258 66.4132 81.4427 64.5676 83.2802 63.3185L86.0847 67.4286C85.4077 67.888 84.9725 68.5407 84.8678 69.258C84.763 69.943 84.9967 70.6361 85.4964 71.1599C86.2298 71.9255 87.4306 72.256 88.8731 72.1028C90.3882 71.9417 91.452 71.4259 92.7656 70.5958L95.4171 74.8026C93.8294 75.8019 92 76.769 89.397 77.043C88.9859 77.0833 88.583 77.1075 88.1881 77.1075V77.1156Z" fill="#111111"/>
<path d="M157.291 65.9491H162.621V91.6982H178.711V96.548H157.291V65.9391V65.9491Z" fill="#111111"/>
<path d="M179.081 96.928H156.911V65.5691H162.991V91.3182H179.081V96.918V96.928ZM157.661 96.1781H178.331V92.0782H162.241V66.3291H157.661V96.188V96.1781Z" fill="#111111"/>
<path d="M183.991 64.899H189.721V69.9289H183.991V64.899ZM184.211 73.4688H189.541V96.558H184.211V73.4688Z" fill="#111111"/>
<path d="M189.921 96.928H183.841V73.0888H189.921V96.928ZM184.591 96.178H189.171V73.8387H184.591V96.178ZM190.091 70.3089H183.611V64.5291H190.091V70.3089ZM184.371 69.5589H189.351V65.279H184.371V69.5589Z" fill="#111111"/>
<path d="M204.361 96.948C203.401 96.948 202.501 96.828 201.681 96.598C200.861 96.368 200.141 95.9881 199.541 95.4581C198.941 94.9281 198.481 94.2381 198.151 93.3781C197.831 92.5182 197.661 91.4482 197.661 90.1682V78.0187H194.731V73.4688H197.661V67.129H202.991V73.4688H209.201V78.0187H202.991V89.3383C202.991 90.3582 203.241 91.0982 203.731 91.5482C204.221 91.9982 204.931 92.2282 205.831 92.2282C206.971 92.2282 208.061 91.9682 209.111 91.4382V95.7681C208.441 96.148 207.731 96.438 206.971 96.648C206.211 96.848 205.341 96.958 204.351 96.958L204.361 96.948Z" fill="#111111"/>
<path d="M204.361 97.328C203.371 97.328 202.431 97.208 201.581 96.968C200.711 96.718 199.941 96.308 199.301 95.758C198.651 95.1981 198.151 94.4481 197.811 93.5281C197.471 92.6282 197.301 91.5082 197.301 90.1783V78.3986H194.371V73.0988H197.301V66.759H203.381V73.0988H209.591V78.3986H203.381V89.3483C203.381 90.2582 203.591 90.9082 204.001 91.2782C204.421 91.6582 205.041 91.8582 205.851 91.8582C206.921 91.8582 207.971 91.6082 208.961 91.1082L209.501 90.8382V95.9881L209.311 96.098C208.611 96.488 207.861 96.798 207.081 97.008C206.291 97.218 205.381 97.328 204.361 97.328ZM195.121 77.6487H198.051V90.1783C198.051 91.4082 198.211 92.4482 198.511 93.2581C198.811 94.0581 199.241 94.7081 199.791 95.1881C200.351 95.6681 201.021 96.028 201.791 96.248C203.391 96.698 205.461 96.668 206.891 96.288C207.541 96.118 208.171 95.868 208.751 95.5581V92.0382C207.821 92.4182 206.841 92.6182 205.851 92.6182C204.861 92.6182 204.061 92.3582 203.501 91.8382C202.931 91.3182 202.631 90.4782 202.631 89.3483V77.6487H208.841V73.8488H202.631V67.509H198.051V73.8488H195.121V77.6487Z" fill="#111111"/>
<path d="M222.471 96.948C221.511 96.948 220.611 96.828 219.791 96.598C218.971 96.368 218.251 95.9881 217.651 95.4581C217.051 94.9281 216.591 94.2381 216.261 93.3781C215.941 92.5182 215.771 91.4482 215.771 90.1682V78.0187H212.841V73.4688H215.771V67.129H221.101V73.4688H227.311V78.0187H221.101V89.3383C221.101 90.3582 221.351 91.0982 221.841 91.5482C222.331 91.9982 223.041 92.2282 223.941 92.2282C225.081 92.2282 226.171 91.9682 227.221 91.4382V95.7681C226.551 96.148 225.841 96.438 225.081 96.648C224.321 96.848 223.451 96.958 222.461 96.958L222.471 96.948Z" fill="#111111"/>
<path d="M222.471 97.328C221.481 97.328 220.541 97.208 219.691 96.968C218.821 96.718 218.051 96.308 217.411 95.758C216.761 95.1981 216.261 94.4481 215.921 93.5281C215.581 92.6282 215.411 91.5082 215.411 90.1783V78.3986H212.481V73.0988H215.411V66.759H221.491V73.0988H227.701V78.3986H221.491V89.3483C221.491 90.2582 221.701 90.9082 222.111 91.2782C222.531 91.6582 223.151 91.8582 223.961 91.8582C225.031 91.8582 226.081 91.6082 227.071 91.1082L227.611 90.8382V95.9881L227.421 96.098C226.721 96.488 225.971 96.798 225.191 97.008C224.401 97.218 223.491 97.328 222.471 97.328ZM213.231 77.6487H216.161V90.1783C216.161 91.4082 216.321 92.4482 216.621 93.2581C216.921 94.0581 217.351 94.7081 217.901 95.1881C218.461 95.6681 219.131 96.028 219.901 96.248C221.501 96.698 223.571 96.668 225.001 96.288C225.651 96.118 226.281 95.868 226.861 95.5581V92.0382C225.931 92.4182 224.951 92.6182 223.961 92.6182C222.971 92.6182 222.171 92.3582 221.611 91.8382C221.041 91.3182 220.741 90.4782 220.741 89.3483V77.6487H226.951V73.8488H220.741V67.509H216.161V73.8488H213.231V77.6487Z" fill="#111111"/>
<path d="M233.081 64.639H238.411V96.558H233.081V64.639Z" fill="#111111"/>
<path d="M238.791 96.9279H232.711V64.259H238.791V96.9279ZM233.461 96.178H238.041V65.009H233.461V96.178Z" fill="#111111"/>
<path d="M256.031 97.0788C254.371 97.0788 252.821 96.7888 251.371 96.2088C249.931 95.6288 248.671 94.8088 247.611 93.7588C246.551 92.7088 245.711 91.4488 245.101 89.9788C244.491 88.5088 244.181 86.8788 244.181 85.0988V85.0088C244.181 83.3488 244.461 81.7888 245.011 80.3288C245.561 78.8688 246.341 77.5988 247.351 76.4988C248.361 75.4088 249.541 74.5488 250.911 73.9188C252.281 73.2888 253.801 72.9788 255.461 72.9788C257.301 72.9788 258.911 73.3088 260.291 73.9888C261.671 74.6588 262.831 75.5588 263.741 76.6988C264.651 77.8388 265.351 79.1588 265.821 80.6588C266.291 82.1588 266.521 83.7388 266.521 85.3988C266.521 85.6288 266.521 85.8688 266.501 86.1188C266.481 86.3688 266.461 86.6188 266.431 86.8788H249.471C249.761 88.7788 250.511 90.2188 251.721 91.2288C252.931 92.2388 254.391 92.7388 256.111 92.7388C257.421 92.7388 258.561 92.5088 259.521 92.0388C260.481 91.5688 261.431 90.8888 262.361 89.9888L265.461 92.7388C264.351 94.0488 263.031 95.0988 261.501 95.8888C259.971 96.6788 258.141 97.0688 256.011 97.0688L256.031 97.0788ZM261.271 83.3988C261.181 82.5488 260.991 81.7588 260.701 81.0188C260.411 80.2788 260.021 79.6388 259.521 79.0988C259.021 78.5588 258.431 78.1288 257.751 77.8088C257.061 77.4888 256.291 77.3288 255.411 77.3288C253.781 77.3288 252.431 77.8888 251.371 79.0088C250.311 80.1288 249.661 81.5988 249.421 83.3988H261.271Z" fill="#111111"/>
<path d="M256.031 97.4588C254.331 97.4588 252.711 97.1588 251.231 96.5588C249.751 95.9588 248.441 95.1088 247.351 94.0288C246.261 92.9488 245.381 91.6388 244.751 90.1188C244.121 88.6088 243.801 86.9188 243.801 85.0988C243.801 83.2788 244.091 81.6888 244.661 80.1988C245.231 78.6988 246.041 77.3788 247.071 76.2488C248.111 75.1288 249.341 74.2288 250.751 73.5788C252.161 72.9288 253.751 72.6088 255.451 72.6088C257.331 72.6088 259.021 72.9588 260.441 73.6488C261.871 74.3388 263.081 75.2888 264.021 76.4588C264.961 77.6288 265.681 78.9988 266.161 80.5388C266.631 82.0688 266.881 83.7088 266.881 85.3988C266.881 85.6388 266.881 85.8888 266.861 86.1388C266.841 86.3988 266.821 86.6588 266.791 86.9288L266.751 87.2588H249.901C250.221 88.8388 250.901 90.0788 251.941 90.9488C253.071 91.8888 254.471 92.3688 256.091 92.3688C257.341 92.3688 258.431 92.1488 259.341 91.7088C260.261 91.2588 261.191 90.5888 262.091 89.7188L262.341 89.4788L265.981 92.7088L265.741 92.9888C264.601 94.3288 263.231 95.4188 261.671 96.2288C260.091 97.0388 258.191 97.4488 256.011 97.4488L256.031 97.4588ZM255.461 73.3688C253.861 73.3688 252.381 73.6688 251.071 74.2788C249.751 74.8788 248.591 75.7188 247.631 76.7688C246.661 77.8188 245.901 79.0688 245.371 80.4788C244.831 81.8888 244.561 83.4188 244.561 85.0188C244.561 86.8288 244.861 88.4188 245.451 89.8388C246.041 91.2588 246.861 92.4888 247.881 93.4988C248.901 94.5088 250.131 95.3088 251.521 95.8688C252.911 96.4288 254.431 96.7188 256.041 96.7188C258.101 96.7188 259.891 96.3388 261.351 95.5788C262.721 94.8788 263.931 93.9388 264.951 92.7988L262.381 90.5188C261.501 91.3288 260.601 91.9588 259.691 92.3988C258.681 92.8888 257.481 93.1388 256.121 93.1388C254.321 93.1388 252.761 92.5988 251.491 91.5388C250.211 90.4788 249.411 88.9388 249.111 86.9588L249.041 86.5288H266.101C266.111 86.3888 266.121 86.2488 266.131 86.1188C266.141 85.8788 266.151 85.6488 266.151 85.4188C266.151 83.8088 265.921 82.2488 265.471 80.7888C265.021 79.3388 264.341 78.0488 263.461 76.9588C262.581 75.8688 261.461 74.9988 260.131 74.3488C258.801 73.7088 257.231 73.3788 255.461 73.3788V73.3688ZM261.691 83.7688H249.001L249.051 83.3488C249.291 81.4688 249.981 79.9188 251.091 78.7488C252.221 77.5488 253.681 76.9488 255.411 76.9488C256.331 76.9488 257.171 77.1188 257.911 77.4688C258.641 77.8088 259.271 78.2688 259.801 78.8488C260.321 79.4188 260.751 80.0988 261.051 80.8888C261.351 81.6688 261.551 82.4988 261.641 83.3688L261.681 83.7788L261.691 83.7688ZM249.861 83.0188H260.851C260.751 82.3688 260.591 81.7388 260.361 81.1488C260.091 80.4488 259.711 79.8488 259.251 79.3388C258.791 78.8388 258.231 78.4288 257.601 78.1388C256.971 77.8388 256.231 77.6888 255.421 77.6888C253.881 77.6888 252.651 78.1988 251.651 79.2588C250.731 80.2288 250.131 81.4888 249.871 83.0188H249.861Z" fill="#111111"/>
<path d="M284.431 65.9491H295.841C298.231 65.9491 300.421 66.3391 302.421 67.109C304.421 67.879 306.141 68.949 307.581 70.3189C309.021 71.6889 310.141 73.2988 310.921 75.1488C311.711 76.9987 312.101 79.0086 312.101 81.1586V81.2486C312.101 83.4085 311.711 85.4184 310.921 87.2784C310.131 89.1483 309.021 90.7582 307.581 92.1282C306.141 93.4982 304.421 94.5781 302.421 95.3681C300.421 96.1581 298.231 96.548 295.841 96.548H284.431V65.9391V65.9491ZM295.801 91.7082C297.401 91.7082 298.861 91.4582 300.171 90.9382C301.481 90.4283 302.601 89.7083 303.521 88.7883C304.441 87.8683 305.151 86.7684 305.661 85.4984C306.171 84.2285 306.431 82.8385 306.431 81.3486V81.2586C306.431 79.7686 306.171 78.3787 305.661 77.0887C305.151 75.7987 304.441 74.6988 303.521 73.7788C302.601 72.8588 301.491 72.1289 300.171 71.6089C298.861 71.0789 297.401 70.8189 295.801 70.8189H289.771V91.7182H295.801V91.7082Z" fill="#111111"/>
<path d="M295.841 96.928H284.051V65.5691H295.841C298.261 65.5691 300.521 65.9691 302.561 66.749C304.591 67.539 306.371 68.639 307.841 70.0389C309.311 71.4389 310.471 73.1088 311.271 74.9988C312.071 76.8887 312.481 78.9586 312.481 81.1586C312.481 83.3585 312.071 85.5184 311.271 87.4284C310.471 89.3283 309.311 91.0082 307.841 92.4082C306.371 93.8081 304.591 94.9181 302.561 95.7181C300.531 96.518 298.271 96.928 295.841 96.928ZM284.801 96.1781H295.841C298.171 96.1781 300.341 95.7881 302.281 95.0281C304.221 94.2581 305.921 93.1981 307.321 91.8682C308.721 90.5382 309.821 88.9483 310.581 87.1384C311.341 85.3284 311.731 83.3485 311.731 81.2486C311.731 79.1486 311.341 77.0887 310.581 75.2988C309.821 73.5088 308.721 71.9189 307.321 70.5889C305.921 69.259 304.231 68.209 302.281 67.449C300.341 66.699 298.171 66.3191 295.841 66.3191H284.801V96.1781ZM295.801 92.0782H289.391V70.4289H295.801C297.441 70.4289 298.961 70.7089 300.311 71.2489C301.661 71.7889 302.831 72.5488 303.781 73.5088C304.731 74.4588 305.481 75.6187 306.001 76.9487C306.531 78.2786 306.791 79.7286 306.791 81.2585C306.791 82.8785 306.521 84.3184 306.001 85.6384C305.471 86.9584 304.731 88.1083 303.781 89.0583C302.831 90.0183 301.661 90.7682 300.311 91.2982C298.961 91.8282 297.451 92.0882 295.801 92.0882V92.0782ZM290.141 91.3282H295.801C297.351 91.3282 298.781 91.0782 300.041 90.5882C301.301 90.0982 302.381 89.3983 303.261 88.5183C304.141 87.6383 304.831 86.5684 305.321 85.3484C305.811 84.1285 306.061 82.7785 306.061 81.3385C306.061 79.8186 305.811 78.4586 305.321 77.2187C304.831 75.9887 304.141 74.9088 303.261 74.0288C302.381 73.1488 301.301 72.4489 300.041 71.9389C298.781 71.4289 297.361 71.1789 295.811 71.1789H290.151V91.3282H290.141Z" fill="#111111"/>
<path d="M332.311 96.5588V93.7188C331.521 94.6488 330.521 95.4388 329.291 96.0788C328.071 96.7188 326.581 97.0388 324.831 97.0388C323.721 97.0388 322.671 96.8888 321.681 96.5788C320.691 96.2688 319.821 95.8188 319.081 95.2188C318.341 94.6188 317.741 93.8788 317.291 92.9888C316.841 92.0988 316.611 91.0688 316.611 89.9088V89.8188C316.611 88.5388 316.841 87.4188 317.311 86.4788C317.781 85.5288 318.431 84.7488 319.261 84.1188C320.091 83.4888 321.081 83.0288 322.231 82.7188C323.381 82.4088 324.631 82.2588 325.971 82.2588C327.311 82.2588 328.561 82.3488 329.531 82.5188C330.501 82.6888 331.451 82.9288 332.351 83.2188V82.7788C332.351 81.1788 331.861 79.9488 330.891 79.1088C329.911 78.2688 328.511 77.8388 326.671 77.8388C325.361 77.8388 324.191 77.9688 323.171 78.2288C322.151 78.4888 321.111 78.8388 320.071 79.2788L318.631 75.0388C319.911 74.4588 321.221 73.9888 322.571 73.6388C323.911 73.2888 325.531 73.1188 327.421 73.1188C330.861 73.1188 333.411 73.9688 335.071 75.6788C336.731 77.3888 337.561 79.7788 337.561 82.8688V96.5588H332.311ZM332.441 86.8988C331.771 86.6388 330.981 86.4188 330.061 86.2388C329.141 86.0688 328.171 85.9788 327.151 85.9788C325.491 85.9788 324.191 86.2988 323.261 86.9388C322.331 87.5788 321.861 88.4588 321.861 89.5588V89.6488C321.861 90.7588 322.291 91.5988 323.151 92.1888C324.011 92.7788 325.071 93.0588 326.321 93.0588C327.201 93.0588 328.001 92.9388 328.751 92.7088C329.501 92.4788 330.141 92.1488 330.701 91.7288C331.251 91.3088 331.681 90.7988 331.991 90.1988C332.301 89.5988 332.451 88.9388 332.451 88.2088V86.8988H332.441Z" fill="#111111"/>
<path d="M324.831 97.4088C323.691 97.4088 322.591 97.2488 321.571 96.9288C320.541 96.6088 319.621 96.1288 318.841 95.5088C318.061 94.8788 317.421 94.0888 316.951 93.1588C316.471 92.2188 316.231 91.1288 316.231 89.9088C316.231 88.4888 316.481 87.3088 316.971 86.3088C317.461 85.3188 318.151 84.4788 319.031 83.8188C319.901 83.1688 320.941 82.6688 322.131 82.3588C323.311 82.0488 324.601 81.8888 325.961 81.8888C327.321 81.8888 328.591 81.9788 329.591 82.1588C330.401 82.3088 331.201 82.4888 331.971 82.7188C331.961 81.2488 331.521 80.1688 330.641 79.3988C329.741 78.6188 328.401 78.2188 326.671 78.2188C325.401 78.2188 324.251 78.3488 323.271 78.5988C322.271 78.8588 321.241 79.2088 320.221 79.6288L319.851 79.7888L318.171 74.8488L318.481 74.7088C319.771 74.1188 321.121 73.6488 322.481 73.2888C323.841 72.9288 325.511 72.7488 327.431 72.7488C330.961 72.7488 333.621 73.6488 335.351 75.4188C337.071 77.1888 337.951 79.6988 337.951 82.8688V96.9288H331.951V94.6588C331.251 95.3288 330.431 95.9088 329.481 96.4088C328.211 97.0788 326.651 97.4088 324.851 97.4088H324.831ZM325.971 82.6388C324.671 82.6388 323.441 82.7888 322.331 83.0888C321.231 83.3788 320.281 83.8288 319.491 84.4288C318.711 85.0188 318.091 85.7688 317.661 86.6588C317.221 87.5488 317.001 88.6188 317.001 89.8388C317.001 91.0588 317.211 92.0088 317.641 92.8388C318.061 93.6788 318.641 94.3888 319.331 94.9488C320.031 95.5188 320.871 95.9488 321.811 96.2388C322.761 96.5288 323.781 96.6788 324.851 96.6788C326.531 96.6788 327.971 96.3688 329.141 95.7588C330.311 95.1388 331.291 94.3788 332.041 93.4888L332.701 92.7088V96.1988H337.201V82.8888C337.201 79.9188 336.401 77.5788 334.811 75.9588C333.231 74.3388 330.741 73.5188 327.431 73.5188C325.571 73.5188 323.971 73.6888 322.671 74.0288C321.461 74.3488 320.261 74.7588 319.101 75.2688L320.311 78.8088C321.241 78.4388 322.181 78.1288 323.091 77.8888C324.141 77.6188 325.351 77.4788 326.681 77.4788C328.601 77.4788 330.101 77.9388 331.141 78.8388C332.201 79.7588 332.731 81.0888 332.731 82.7988V83.7488L332.241 83.5888C331.351 83.2988 330.421 83.0688 329.471 82.8988C328.521 82.7288 327.341 82.6388 325.971 82.6388ZM326.321 93.4388C324.991 93.4388 323.861 93.1188 322.941 92.4988C321.981 91.8488 321.491 90.8888 321.491 89.6488C321.491 88.3288 322.021 87.3388 323.051 86.6288C324.041 85.9488 325.421 85.5988 327.151 85.5988C328.191 85.5988 329.191 85.6888 330.131 85.8688C331.061 86.0488 331.891 86.2688 332.581 86.5388L332.821 86.6288V88.1988C332.821 88.9888 332.651 89.7088 332.321 90.3588C331.991 90.9988 331.521 91.5588 330.921 92.0188C330.331 92.4688 329.641 92.8188 328.861 93.0588C328.081 93.2988 327.231 93.4288 326.321 93.4288V93.4388ZM327.151 86.3488C325.571 86.3488 324.341 86.6488 323.471 87.2488C322.641 87.8188 322.231 88.5788 322.231 89.5588C322.231 90.6288 322.601 91.3588 323.351 91.8688C324.141 92.4088 325.141 92.6788 326.311 92.6788C327.141 92.6788 327.921 92.5688 328.621 92.3488C329.321 92.1288 329.941 91.8188 330.451 91.4288C330.961 91.0388 331.361 90.5688 331.631 90.0288C331.911 89.4888 332.051 88.8788 332.051 88.2088V87.1588C331.451 86.9488 330.751 86.7588 329.971 86.6088C329.081 86.4388 328.121 86.3488 327.131 86.3488H327.151Z" fill="#111111"/>
<path d="M348.751 103.688C347.641 103.688 346.661 103.568 345.801 103.318C344.941 103.068 344.101 102.728 343.291 102.288L345.081 98.3579C345.581 98.6179 346.081 98.8279 346.591 98.9879C347.101 99.1479 347.631 99.2279 348.191 99.2279C348.951 99.2279 349.571 99.0379 350.071 98.6579C350.571 98.2779 351.031 97.5779 351.471 96.558L341.851 73.4688H347.491L354.051 90.6082L360.041 73.4688H365.551L356.371 97.2079C355.901 98.3979 355.421 99.4079 354.931 100.228C354.431 101.048 353.881 101.708 353.271 102.218C352.661 102.728 351.991 103.098 351.261 103.338C350.531 103.568 349.701 103.688 348.771 103.688H348.751Z" fill="#111111"/>
<path d="M348.751 104.058C347.611 104.058 346.581 103.928 345.701 103.668C344.821 103.418 343.951 103.058 343.111 102.608L342.801 102.438L344.901 97.8179L345.251 98.0079C345.721 98.2579 346.211 98.4579 346.701 98.6179C347.171 98.7679 347.671 98.8379 348.181 98.8379C348.861 98.8379 349.401 98.6779 349.831 98.3479C350.251 98.0279 350.661 97.4179 351.051 96.548L341.281 73.0887H347.741L354.031 89.5082L359.771 73.0887H366.091L356.711 97.3379C356.241 98.5479 355.741 99.5778 355.241 100.418C354.731 101.268 354.141 101.968 353.501 102.498C352.851 103.038 352.141 103.438 351.361 103.678C350.591 103.918 349.721 104.048 348.751 104.048V104.058ZM343.771 102.118C344.461 102.468 345.171 102.748 345.901 102.958C346.721 103.198 347.681 103.318 348.751 103.318C349.641 103.318 350.441 103.208 351.131 102.988C351.811 102.768 352.451 102.418 353.021 101.938C353.601 101.458 354.131 100.818 354.601 100.038C355.081 99.2379 355.561 98.2479 356.011 97.0779L365.001 73.8487H360.301L354.061 91.7081L347.231 73.8487H342.411L351.871 96.5579L351.811 96.708C351.341 97.7979 350.851 98.5379 350.291 98.9579C349.731 99.3879 349.021 99.6078 348.181 99.6078C347.591 99.6078 347.021 99.5179 346.471 99.3479C346.061 99.2179 345.651 99.0579 345.251 98.8679L343.771 102.128V102.118Z" fill="#111111"/>
<path d="M378.191 96.9987C376.531 96.9987 374.851 96.7087 373.141 96.1187C371.431 95.5287 369.851 94.6587 368.401 93.5087L370.761 89.9187C372.011 90.8487 373.291 91.5587 374.591 92.0387C375.891 92.5187 377.131 92.7587 378.331 92.7587C379.531 92.7587 380.351 92.5287 380.971 92.0787C381.601 91.6287 381.911 91.0287 381.911 90.2687V90.1787C381.911 89.7387 381.771 89.3687 381.491 89.0487C381.211 88.7287 380.831 88.4487 380.351 88.2187C379.871 87.9887 379.311 87.7687 378.691 87.5687C378.061 87.3687 377.411 87.1587 376.741 86.9587C375.891 86.7287 375.041 86.4487 374.181 86.1287C373.321 85.8087 372.551 85.3987 371.861 84.8887C371.171 84.3787 370.611 83.7487 370.181 82.9887C369.741 82.2287 369.521 81.2987 369.521 80.1987V80.1087C369.521 79.0287 369.731 78.0587 370.151 77.1887C370.571 76.3187 371.161 75.5787 371.901 74.9587C372.641 74.3487 373.521 73.8787 374.521 73.5587C375.531 73.2387 376.601 73.0787 377.731 73.0787C379.191 73.0787 380.661 73.3187 382.151 73.7887C383.641 74.2587 384.991 74.9087 386.221 75.7287L384.121 79.5087C383.011 78.8387 381.891 78.3087 380.751 77.9087C379.611 77.5087 378.561 77.3187 377.601 77.3187C376.581 77.3187 375.791 77.5387 375.221 77.9687C374.651 78.4087 374.371 78.9587 374.371 79.6287V79.7187C374.371 80.1287 374.521 80.4787 374.811 80.7887C375.101 81.0987 375.491 81.3687 375.971 81.6187C376.451 81.8687 377.011 82.0987 377.631 82.3187C378.261 82.5387 378.901 82.7487 379.581 82.9487C380.431 83.2087 381.271 83.5187 382.121 83.8687C382.961 84.2187 383.731 84.6487 384.411 85.1587C385.091 85.6687 385.661 86.2887 386.091 87.0087C386.531 87.7387 386.751 88.6187 386.751 89.6687V89.7587C386.751 90.9787 386.531 92.0387 386.091 92.9487C385.651 93.8487 385.051 94.5987 384.281 95.1987C383.511 95.7987 382.601 96.2487 381.551 96.5487C380.501 96.8487 379.381 97.0087 378.181 97.0087L378.191 96.9987Z" fill="#111111"/>
<path d="M378.191 97.3688C376.501 97.3688 374.761 97.0688 373.021 96.4688C371.281 95.8688 369.651 94.9688 368.171 93.7988L367.901 93.5888L370.671 89.3788L370.991 89.6188C372.211 90.5288 373.471 91.2188 374.721 91.6888C375.971 92.1488 377.181 92.3888 378.331 92.3888C379.381 92.3888 380.201 92.1888 380.761 91.7788C381.291 91.3988 381.541 90.9088 381.541 90.2688C381.541 89.8388 381.431 89.5488 381.221 89.2888C380.981 89.0088 380.641 88.7588 380.201 88.5488C379.731 88.3188 379.191 88.1088 378.591 87.9188C377.961 87.7188 377.321 87.5088 376.651 87.3088C375.821 87.0788 374.951 86.7988 374.071 86.4788C373.181 86.1488 372.371 85.7088 371.661 85.1888C370.941 84.6488 370.341 83.9788 369.881 83.1788C369.411 82.3688 369.171 81.3688 369.171 80.1988C369.171 79.0288 369.401 77.9488 369.841 77.0288C370.281 76.1088 370.901 75.3188 371.691 74.6788C372.471 74.0388 373.391 73.5488 374.441 73.2188C376.811 72.4688 379.591 72.5888 382.301 73.4488C383.821 73.9288 385.221 74.5988 386.461 75.4388L386.751 75.6288L384.291 80.0488L383.961 79.8488C382.881 79.1988 381.771 78.6688 380.671 78.2888C378.461 77.5288 376.481 77.5388 375.491 78.2888C375.011 78.6488 374.781 79.0988 374.781 79.6488C374.781 80.0488 374.891 80.3088 375.111 80.5488C375.371 80.8188 375.731 81.0788 376.171 81.2988C376.631 81.5388 377.171 81.7688 377.781 81.9788C378.401 82.1988 379.051 82.4088 379.711 82.6088C380.561 82.8688 381.421 83.1888 382.281 83.5388C383.151 83.8988 383.951 84.3488 384.661 84.8688C385.381 85.4088 385.981 86.0688 386.441 86.8288C386.911 87.6088 387.151 88.5688 387.151 89.6788C387.151 91.0388 386.921 92.1688 386.461 93.1188C386.001 94.0688 385.351 94.8688 384.541 95.4988C383.741 96.1188 382.781 96.5988 381.681 96.9188C380.601 97.2288 379.431 97.3888 378.211 97.3888L378.191 97.3688ZM368.901 93.4188C370.251 94.4388 371.711 95.2188 373.261 95.7588C376.101 96.7388 379.021 96.8788 381.451 96.1788C382.451 95.8888 383.331 95.4588 384.061 94.8888C384.781 94.3288 385.361 93.6188 385.771 92.7788C386.181 91.9288 386.391 90.9188 386.391 89.7588C386.391 88.6988 386.191 87.8688 385.791 87.2088C385.381 86.5288 384.851 85.9388 384.201 85.4588C383.541 84.9688 382.801 84.5588 381.991 84.2188C381.151 83.8788 380.311 83.5688 379.491 83.3188C378.821 83.1188 378.161 82.8988 377.531 82.6788C376.891 82.4588 376.311 82.2188 375.821 81.9588C375.301 81.6888 374.881 81.3888 374.561 81.0588C374.201 80.6788 374.021 80.2388 374.021 79.7288C374.021 78.8488 374.361 78.1988 375.021 77.6888C376.231 76.7588 378.441 76.7188 380.901 77.5688C381.941 77.9288 382.981 78.4088 384.001 78.9988L385.741 75.8588C384.631 75.1488 383.391 74.5688 382.061 74.1488C379.501 73.3388 376.881 73.2188 374.661 73.9188C373.701 74.2188 372.861 74.6688 372.161 75.2488C371.461 75.8288 370.911 76.5288 370.511 77.3488C370.111 78.1688 369.911 79.0988 369.911 80.1088C369.911 81.2288 370.111 82.1088 370.511 82.7988C370.921 83.5088 371.451 84.1088 372.091 84.5888C372.741 85.0688 373.491 85.4788 374.311 85.7788C375.171 86.0988 376.021 86.3688 376.841 86.5988C377.521 86.8088 378.171 87.0088 378.801 87.2188C379.431 87.4288 380.011 87.6488 380.511 87.8888C381.031 88.1388 381.461 88.4488 381.771 88.8088C382.111 89.1988 382.281 89.6588 382.281 90.1888C382.281 91.1588 381.911 91.8688 381.181 92.3888C380.491 92.8888 379.531 93.1388 378.321 93.1388C377.111 93.1388 375.781 92.8888 374.451 92.3888C373.241 91.9388 372.031 91.2888 370.851 90.4488L368.891 93.4188H368.901Z" fill="#111111"/>
<rect x="43" y="43" width="94.0781" height="30" rx="3" fill="#444444"/>
<rect x="43.5" y="43.5" width="93.0781" height="29" rx="2.5" stroke="white" stroke-opacity="0.0980392"/>
<path d="M54.3438 55C54.2969 54.6042 54.1068 54.2969 53.7734 54.0781C53.4401 53.8594 53.0313 53.75 52.5469 53.75C52.1927 53.75 51.8828 53.8073 51.6172 53.9219C51.3542 54.0365 51.1484 54.194 51 54.3945C50.8542 54.5951 50.7813 54.8229 50.7813 55.0781C50.7813 55.2917 50.832 55.4753 50.9336 55.6289C51.0378 55.7799 51.1706 55.9062 51.332 56.0078C51.4935 56.1068 51.6628 56.1888 51.8398 56.2539C52.0169 56.3164 52.1797 56.3672 52.3281 56.4062L53.1406 56.625C53.349 56.6797 53.5807 56.7552 53.8359 56.8516C54.0938 56.9479 54.3398 57.0794 54.5742 57.2461C54.8112 57.4102 55.0065 57.6211 55.1602 57.8789C55.3138 58.1367 55.3906 58.4531 55.3906 58.8281C55.3906 59.2604 55.2773 59.651 55.0508 60C54.8268 60.349 54.4987 60.6263 54.0664 60.832C53.6367 61.0378 53.1146 61.1406 52.5 61.1406C51.9271 61.1406 51.431 61.0482 51.0117 60.8633C50.5951 60.6784 50.2669 60.4206 50.0273 60.0898C49.7904 59.7591 49.6563 59.375 49.625 58.9375H50.625C50.651 59.2396 50.7526 59.4896 50.9297 59.6875C51.1094 59.8828 51.3359 60.0286 51.6094 60.125C51.8854 60.2187 52.1823 60.2656 52.5 60.2656C52.8698 60.2656 53.2018 60.2057 53.4961 60.0859C53.7904 59.9635 54.0234 59.7943 54.1953 59.5781C54.3672 59.3594 54.4531 59.1042 54.4531 58.8125C54.4531 58.5469 54.3789 58.3307 54.2305 58.1641C54.082 57.9974 53.8867 57.862 53.6445 57.7578C53.4023 57.6536 53.1406 57.5625 52.8594 57.4844L51.875 57.2031C51.25 57.0234 50.7552 56.7669 50.3906 56.4336C50.026 56.1003 49.8438 55.6641 49.8438 55.125C49.8438 54.6771 49.9648 54.2865 50.207 53.9531C50.4518 53.6172 50.7799 53.3568 51.1914 53.1719C51.6055 52.9844 52.0677 52.8906 52.5781 52.8906C53.0938 52.8906 53.5521 52.9831 53.9531 53.168C54.3542 53.3503 54.6719 53.6003 54.9062 53.918C55.1432 54.2357 55.2682 54.5964 55.2813 55H54.3438ZM59.374 61.125C58.7959 61.125 58.2972 60.9974 57.8779 60.7422C57.4613 60.4844 57.1396 60.125 56.9131 59.6641C56.6891 59.2005 56.5771 58.6615 56.5771 58.0469C56.5771 57.4323 56.6891 56.8906 56.9131 56.4219C57.1396 55.9505 57.4548 55.5833 57.8584 55.3203C58.2646 55.0547 58.7386 54.9219 59.2803 54.9219C59.5928 54.9219 59.9014 54.974 60.2061 55.0781C60.5107 55.1823 60.7881 55.3516 61.0381 55.5859C61.2881 55.8177 61.4873 56.125 61.6357 56.5078C61.7842 56.8906 61.8584 57.362 61.8584 57.9219V58.3125H57.2334V57.5156H60.9209C60.9209 57.1771 60.8532 56.875 60.7178 56.6094C60.585 56.3437 60.3949 56.1341 60.1475 55.9805C59.9027 55.8268 59.6136 55.75 59.2803 55.75C58.9131 55.75 58.5954 55.8411 58.3271 56.0234C58.0615 56.2031 57.8571 56.4375 57.7139 56.7266C57.5706 57.0156 57.499 57.3255 57.499 57.6562V58.1875C57.499 58.6406 57.5771 59.0247 57.7334 59.3398C57.8923 59.6523 58.1123 59.8906 58.3936 60.0547C58.6748 60.2161 59.0016 60.2969 59.374 60.2969C59.6162 60.2969 59.835 60.263 60.0303 60.1953C60.2282 60.125 60.3988 60.0208 60.542 59.8828C60.6852 59.7422 60.7959 59.5677 60.874 59.3594L61.7646 59.6094C61.6709 59.9115 61.5133 60.1771 61.292 60.4062C61.0706 60.6328 60.7972 60.8099 60.4717 60.9375C60.1462 61.0625 59.7803 61.125 59.374 61.125ZM65.6982 61.125C65.1357 61.125 64.6514 60.9922 64.2451 60.7266C63.8389 60.4609 63.5264 60.0951 63.3076 59.6289C63.0889 59.1628 62.9795 58.6302 62.9795 58.0312C62.9795 57.4219 63.0915 56.8841 63.3154 56.418C63.542 55.9492 63.8571 55.5833 64.2607 55.3203C64.667 55.0547 65.141 54.9219 65.6826 54.9219C66.1045 54.9219 66.4847 55 66.8232 55.1562C67.1618 55.3125 67.4391 55.5312 67.6553 55.8125C67.8714 56.0937 68.0055 56.4219 68.0576 56.7969H67.1357C67.0654 56.5234 66.9092 56.2812 66.667 56.0703C66.4274 55.8568 66.1045 55.75 65.6982 55.75C65.3389 55.75 65.0238 55.8437 64.7529 56.0312C64.4847 56.2161 64.2751 56.4779 64.124 56.8164C63.9756 57.1523 63.9014 57.5469 63.9014 58C63.9014 58.4635 63.9743 58.8672 64.1201 59.2109C64.2686 59.5547 64.4769 59.8216 64.7451 60.0117C65.016 60.2018 65.3337 60.2969 65.6982 60.2969C65.9378 60.2969 66.1553 60.2552 66.3506 60.1719C66.5459 60.0885 66.7113 59.9688 66.8467 59.8125C66.9821 59.6562 67.0785 59.4687 67.1357 59.25H68.0576C68.0055 59.6042 67.8766 59.9232 67.6709 60.207C67.4678 60.4883 67.1982 60.7122 66.8623 60.8789C66.529 61.043 66.141 61.125 65.6982 61.125ZM72.0146 55V55.7812H68.9053V55H72.0146ZM69.8115 53.5625H70.7334V59.2812C70.7334 59.5417 70.7712 59.737 70.8467 59.8672C70.9248 59.9948 71.0238 60.0807 71.1436 60.125C71.266 60.1667 71.3949 60.1875 71.5303 60.1875C71.6318 60.1875 71.7152 60.1823 71.7803 60.1719C71.8454 60.1589 71.8975 60.1484 71.9365 60.1406L72.124 60.9687C72.0615 60.9922 71.9743 61.0156 71.8623 61.0391C71.7503 61.0651 71.6084 61.0781 71.4365 61.0781C71.1761 61.0781 70.9209 61.0221 70.6709 60.9102C70.4235 60.7982 70.2178 60.6276 70.0537 60.3984C69.8923 60.1693 69.8115 59.8802 69.8115 59.5312V53.5625ZM73.4014 61V55H74.3232V61H73.4014ZM73.8701 54C73.6904 54 73.5355 53.9388 73.4053 53.8164C73.2777 53.694 73.2139 53.5469 73.2139 53.375C73.2139 53.2031 73.2777 53.056 73.4053 52.9336C73.5355 52.8112 73.6904 52.75 73.8701 52.75C74.0498 52.75 74.2035 52.8112 74.3311 52.9336C74.4613 53.056 74.5264 53.2031 74.5264 53.375C74.5264 53.5469 74.4613 53.694 74.3311 53.8164C74.2035 53.9388 74.0498 54 73.8701 54ZM78.4492 61.125C77.9076 61.125 77.4323 60.9961 77.0234 60.7383C76.6172 60.4805 76.2995 60.1198 76.0703 59.6562C75.8438 59.1927 75.7305 58.651 75.7305 58.0312C75.7305 57.4062 75.8438 56.8607 76.0703 56.3945C76.2995 55.9284 76.6172 55.5664 77.0234 55.3086C77.4323 55.0508 77.9076 54.9219 78.4492 54.9219C78.9909 54.9219 79.4648 55.0508 79.8711 55.3086C80.2799 55.5664 80.5977 55.9284 80.8242 56.3945C81.0534 56.8607 81.168 57.4062 81.168 58.0312C81.168 58.651 81.0534 59.1927 80.8242 59.6562C80.5977 60.1198 80.2799 60.4805 79.8711 60.7383C79.4648 60.9961 78.9909 61.125 78.4492 61.125ZM78.4492 60.2969C78.8607 60.2969 79.1992 60.1914 79.4648 59.9805C79.7305 59.7695 79.9271 59.4922 80.0547 59.1484C80.1823 58.8047 80.2461 58.4323 80.2461 58.0312C80.2461 57.6302 80.1823 57.2565 80.0547 56.9102C79.9271 56.5638 79.7305 56.2839 79.4648 56.0703C79.1992 55.8568 78.8607 55.75 78.4492 55.75C78.0378 55.75 77.6992 55.8568 77.4336 56.0703C77.168 56.2839 76.9714 56.5638 76.8438 56.9102C76.7161 57.2565 76.6523 57.6302 76.6523 58.0312C76.6523 58.4323 76.7161 58.8047 76.8438 59.1484C76.9714 59.4922 77.168 59.7695 77.4336 59.9805C77.6992 60.1914 78.0378 60.2969 78.4492 60.2969ZM83.4971 57.3906V61H82.5752V55H83.4658V55.9375H83.5439C83.6846 55.6328 83.8981 55.388 84.1846 55.2031C84.471 55.0156 84.8408 54.9219 85.2939 54.9219C85.7002 54.9219 86.0557 55.0052 86.3604 55.1719C86.665 55.3359 86.902 55.5859 87.0713 55.9219C87.2406 56.2552 87.3252 56.6771 87.3252 57.1875V61H86.4033V57.25C86.4033 56.7786 86.2809 56.4115 86.0361 56.1484C85.7913 55.8828 85.4554 55.75 85.0283 55.75C84.734 55.75 84.471 55.8138 84.2393 55.9414C84.0101 56.069 83.8291 56.2552 83.6963 56.5C83.5635 56.7448 83.4971 57.0417 83.4971 57.3906ZM91.9004 59.3594V58.5625L95.416 53H95.9941V54.2344H95.6035L92.9473 58.4375V58.5H97.6816V59.3594H91.9004ZM95.666 61V59.1172V58.7461V53H96.5879V61H95.666ZM101.708 61.1094C101.172 61.1094 100.698 61.0143 100.286 60.8242C99.8773 60.6315 99.5583 60.3672 99.3291 60.0312C99.0999 59.6927 98.9867 59.3073 98.9893 58.875C98.9867 58.5365 99.0531 58.224 99.1885 57.9375C99.3239 57.6484 99.5088 57.4076 99.7432 57.2148C99.9801 57.0195 100.244 56.8958 100.536 56.8438V56.7969C100.153 56.6979 99.8486 56.4831 99.6221 56.1523C99.3955 55.819 99.2835 55.4401 99.2861 55.0156C99.2835 54.6094 99.3864 54.2461 99.5947 53.9258C99.8031 53.6055 100.09 53.3529 100.454 53.168C100.821 52.9831 101.239 52.8906 101.708 52.8906C102.172 52.8906 102.586 52.9831 102.95 53.168C103.315 53.3529 103.601 53.6055 103.81 53.9258C104.021 54.2461 104.127 54.6094 104.13 55.0156C104.127 55.4401 104.011 55.819 103.782 56.1523C103.556 56.4831 103.255 56.6979 102.88 56.7969V56.8438C103.169 56.8958 103.429 57.0195 103.661 57.2148C103.893 57.4076 104.078 57.6484 104.216 57.9375C104.354 58.224 104.424 58.5365 104.427 58.875C104.424 59.3073 104.307 59.6927 104.075 60.0312C103.846 60.3672 103.527 60.6315 103.118 60.8242C102.712 61.0143 102.242 61.1094 101.708 61.1094ZM101.708 60.25C102.07 60.25 102.382 60.1914 102.646 60.0742C102.909 59.957 103.112 59.7917 103.255 59.5781C103.398 59.3646 103.471 59.1146 103.474 58.8281C103.471 58.526 103.393 58.2591 103.239 58.0273C103.086 57.7956 102.876 57.6133 102.61 57.4805C102.347 57.3477 102.047 57.2812 101.708 57.2812C101.367 57.2812 101.062 57.3477 100.794 57.4805C100.528 57.6133 100.319 57.7956 100.165 58.0273C100.014 58.2591 99.9398 58.526 99.9424 58.8281C99.9398 59.1146 100.009 59.3646 100.149 59.5781C100.293 59.7917 100.497 59.957 100.763 60.0742C101.028 60.1914 101.343 60.25 101.708 60.25ZM101.708 56.4531C101.994 56.4531 102.248 56.3958 102.47 56.2812C102.694 56.1667 102.869 56.0065 102.997 55.8008C103.125 55.5951 103.19 55.3542 103.192 55.0781C103.19 54.8073 103.126 54.5716 103.001 54.3711C102.876 54.168 102.703 54.0117 102.481 53.9023C102.26 53.7904 102.002 53.7344 101.708 53.7344C101.409 53.7344 101.147 53.7904 100.923 53.9023C100.699 54.0117 100.526 54.168 100.403 54.3711C100.281 54.5716 100.221 54.8073 100.224 55.0781C100.221 55.3542 100.282 55.5951 100.407 55.8008C100.535 56.0065 100.711 56.1667 100.935 56.2812C101.159 56.3958 101.416 56.4531 101.708 56.4531ZM106.174 61L109.752 53.9219V53.8594H105.627V53H110.752V53.9062L107.189 61H106.174ZM112.673 61L116.251 53.9219V53.8594H112.126V53H117.251V53.9062L113.688 61H112.673ZM119.172 61L122.75 53.9219V53.8594H118.625V53H123.75V53.9062L120.188 61H119.172ZM127.69 61.1094C127.362 61.1042 127.034 61.0417 126.706 60.9219C126.378 60.8021 126.078 60.6003 125.808 60.3164C125.537 60.0299 125.319 59.6432 125.155 59.1562C124.991 58.6667 124.909 58.0521 124.909 57.3125C124.909 56.6042 124.976 55.9766 125.108 55.4297C125.241 54.8802 125.434 54.418 125.687 54.043C125.939 53.6654 126.244 53.3789 126.601 53.1836C126.96 52.9883 127.365 52.8906 127.815 52.8906C128.263 52.8906 128.662 52.9805 129.011 53.1602C129.362 53.3372 129.649 53.5846 129.87 53.9023C130.091 54.2201 130.235 54.5859 130.3 55H129.347C129.258 54.6406 129.086 54.3424 128.831 54.1055C128.576 53.8685 128.237 53.75 127.815 53.75C127.196 53.75 126.707 54.0195 126.351 54.5586C125.996 55.0977 125.818 55.8542 125.815 56.8281H125.878C126.024 56.6068 126.197 56.418 126.397 56.2617C126.601 56.1029 126.825 55.9805 127.069 55.8945C127.314 55.8086 127.573 55.7656 127.847 55.7656C128.305 55.7656 128.724 55.8802 129.104 56.1094C129.485 56.3359 129.789 56.6497 130.019 57.0508C130.248 57.4492 130.362 57.9062 130.362 58.4219C130.362 58.9167 130.252 59.3698 130.03 59.7812C129.809 60.1901 129.498 60.5156 129.097 60.7578C128.698 60.9974 128.229 61.1146 127.69 61.1094ZM127.69 60.25C128.019 60.25 128.313 60.168 128.573 60.0039C128.836 59.8398 129.043 59.6198 129.194 59.3437C129.348 59.0677 129.425 58.7604 129.425 58.4219C129.425 58.0911 129.351 57.7904 129.202 57.5195C129.056 57.2461 128.854 57.0286 128.597 56.8672C128.341 56.7057 128.05 56.625 127.722 56.625C127.474 56.625 127.244 56.6745 127.03 56.7734C126.817 56.8698 126.629 57.0026 126.468 57.1719C126.309 57.3411 126.184 57.5352 126.093 57.7539C126.002 57.9701 125.956 58.1979 125.956 58.4375C125.956 58.7552 126.03 59.0521 126.179 59.3281C126.33 59.6042 126.535 59.8268 126.796 59.9961C127.059 60.1654 127.357 60.25 127.69 60.25Z" fill="white"/>
</svg>
