<svg width="348" height="82" viewBox="0 0 348 82" fill="none" xmlns="http://www.w3.org/2000/svg">
<path d="M43.41 2.21268L46.5047 1.18116C59.4717 -3.1464 73.309 4.83984 76.0491 18.2416L76.7019 21.4328L79.1438 23.5926C89.3787 32.6587 89.3787 48.6392 79.1438 57.7053L76.7019 59.8651L76.0491 63.0563C73.309 76.45 59.4717 84.4362 46.5047 80.1167L43.41 79.0852L40.3153 80.1167C27.3483 84.4443 13.511 76.4581 10.7709 63.0563L10.1181 59.8651L7.67623 57.7053C-2.55874 48.6392 -2.55874 32.6587 7.67623 23.5926L10.1181 21.4328L10.7709 18.2416C13.511 4.84789 27.3483 -3.13834 40.3234 1.18116L43.4181 2.21268H43.41Z" fill="#76D1FF"/>
<path d="M38.5655 37.1156C36.0511 37.1156 33.851 36.2452 32.2795 34.6011C30.6999 32.949 29.9907 30.7328 30.3212 28.5166C30.6355 26.4132 31.8201 24.5676 33.6576 23.3185L36.4621 27.4286C35.7852 27.888 35.35 28.5407 35.2452 29.258C35.1405 29.943 35.3742 30.6361 35.8738 31.1599C36.6072 31.9175 37.7999 32.256 39.2506 32.1028C40.3788 31.9819 41.3056 31.6676 42.4339 31.0229L42.7643 30.8295L45.3029 35.1089C45.174 35.1814 45.045 35.262 44.9161 35.3345L44.5051 34.6253L44.908 35.3345C43.1753 36.3258 41.5877 36.8496 39.7744 37.043C39.3634 37.0833 38.9604 37.1075 38.5655 37.1075V37.1156Z" fill="#111111"/>
<path d="M48.1881 37.1156C45.6737 37.1156 43.4736 36.2452 41.9021 34.6011C40.3225 32.949 39.6133 30.7328 39.9437 28.5166C40.258 26.4132 41.4427 24.5676 43.2802 23.3185L46.0847 27.4286C45.4077 27.888 44.9725 28.5407 44.8678 29.258C44.763 29.943 44.9967 30.6361 45.4964 31.1599C46.2298 31.9255 47.4306 32.256 48.8731 32.1028C50.3882 31.9417 51.452 31.4259 52.7656 30.5958L55.4171 34.8026C53.8294 35.8019 52 36.769 49.397 37.043C48.9859 37.0833 48.583 37.1075 48.1881 37.1075V37.1156Z" fill="#111111"/>
<path d="M117.291 25.9491H122.621V51.6982H138.711V56.548H117.291V25.9391V25.9491Z" fill="#111111"/>
<path d="M139.081 56.928H116.911V25.5691H122.991V51.3182H139.081V56.918V56.928ZM117.661 56.1781H138.331V52.0782H122.241V26.3291H117.661V56.188V56.1781Z" fill="#111111"/>
<path d="M143.991 24.899H149.721V29.9289H143.991V24.899ZM144.211 33.4688H149.541V56.558H144.211V33.4688Z" fill="#111111"/>
<path d="M149.921 56.928H143.841V33.0888H149.921V56.928ZM144.591 56.178H149.171V33.8387H144.591V56.178ZM150.091 30.3089H143.611V24.5291H150.091V30.3089ZM144.371 29.5589H149.351V25.279H144.371V29.5589Z" fill="#111111"/>
<path d="M164.361 56.948C163.401 56.948 162.501 56.828 161.681 56.598C160.861 56.368 160.141 55.9881 159.541 55.4581C158.941 54.9281 158.481 54.2381 158.151 53.3781C157.831 52.5182 157.661 51.4482 157.661 50.1682V38.0187H154.731V33.4688H157.661V27.129H162.991V33.4688H169.201V38.0187H162.991V49.3383C162.991 50.3582 163.241 51.0982 163.731 51.5482C164.221 51.9982 164.931 52.2282 165.831 52.2282C166.971 52.2282 168.061 51.9682 169.111 51.4382V55.7681C168.441 56.148 167.731 56.438 166.971 56.648C166.211 56.848 165.341 56.958 164.351 56.958L164.361 56.948Z" fill="#111111"/>
<path d="M164.361 57.328C163.371 57.328 162.431 57.208 161.581 56.968C160.711 56.718 159.941 56.308 159.301 55.758C158.651 55.1981 158.151 54.4481 157.811 53.5281C157.471 52.6282 157.301 51.5082 157.301 50.1783V38.3986H154.371V33.0988H157.301V26.759H163.381V33.0988H169.591V38.3986H163.381V49.3483C163.381 50.2582 163.591 50.9082 164.001 51.2782C164.421 51.6582 165.041 51.8582 165.851 51.8582C166.921 51.8582 167.971 51.6082 168.961 51.1082L169.501 50.8382V55.9881L169.311 56.098C168.611 56.488 167.861 56.798 167.081 57.008C166.291 57.218 165.381 57.328 164.361 57.328ZM155.121 37.6487H158.051V50.1783C158.051 51.4082 158.211 52.4482 158.511 53.2581C158.811 54.0581 159.241 54.7081 159.791 55.1881C160.351 55.6681 161.021 56.028 161.791 56.248C163.391 56.698 165.461 56.668 166.891 56.288C167.541 56.118 168.171 55.868 168.751 55.5581V52.0382C167.821 52.4182 166.841 52.6182 165.851 52.6182C164.861 52.6182 164.061 52.3582 163.501 51.8382C162.931 51.3182 162.631 50.4782 162.631 49.3483V37.6487H168.841V33.8488H162.631V27.509H158.051V33.8488H155.121V37.6487Z" fill="#111111"/>
<path d="M182.471 56.948C181.511 56.948 180.611 56.828 179.791 56.598C178.971 56.368 178.251 55.9881 177.651 55.4581C177.051 54.9281 176.591 54.2381 176.261 53.3781C175.941 52.5182 175.771 51.4482 175.771 50.1682V38.0187H172.841V33.4688H175.771V27.129H181.101V33.4688H187.311V38.0187H181.101V49.3383C181.101 50.3582 181.351 51.0982 181.841 51.5482C182.331 51.9982 183.041 52.2282 183.941 52.2282C185.081 52.2282 186.171 51.9682 187.221 51.4382V55.7681C186.551 56.148 185.841 56.438 185.081 56.648C184.321 56.848 183.451 56.958 182.461 56.958L182.471 56.948Z" fill="#111111"/>
<path d="M182.471 57.328C181.481 57.328 180.541 57.208 179.691 56.968C178.821 56.718 178.051 56.308 177.411 55.758C176.761 55.1981 176.261 54.4481 175.921 53.5281C175.581 52.6282 175.411 51.5082 175.411 50.1783V38.3986H172.481V33.0988H175.411V26.759H181.491V33.0988H187.701V38.3986H181.491V49.3483C181.491 50.2582 181.701 50.9082 182.111 51.2782C182.531 51.6582 183.151 51.8582 183.961 51.8582C185.031 51.8582 186.081 51.6082 187.071 51.1082L187.611 50.8382V55.9881L187.421 56.098C186.721 56.488 185.971 56.798 185.191 57.008C184.401 57.218 183.491 57.328 182.471 57.328ZM173.231 37.6487H176.161V50.1783C176.161 51.4082 176.321 52.4482 176.621 53.2581C176.921 54.0581 177.351 54.7081 177.901 55.1881C178.461 55.6681 179.131 56.028 179.901 56.248C181.501 56.698 183.571 56.668 185.001 56.288C185.651 56.118 186.281 55.868 186.861 55.5581V52.0382C185.931 52.4182 184.951 52.6182 183.961 52.6182C182.971 52.6182 182.171 52.3582 181.611 51.8382C181.041 51.3182 180.741 50.4782 180.741 49.3483V37.6487H186.951V33.8488H180.741V27.509H176.161V33.8488H173.231V37.6487Z" fill="#111111"/>
<path d="M193.081 24.639H198.411V56.558H193.081V24.639Z" fill="#111111"/>
<path d="M198.791 56.9279H192.711V24.259H198.791V56.9279ZM193.461 56.178H198.041V25.009H193.461V56.178Z" fill="#111111"/>
<path d="M216.031 57.0788C214.371 57.0788 212.821 56.7888 211.371 56.2088C209.931 55.6288 208.671 54.8088 207.611 53.7588C206.551 52.7088 205.711 51.4488 205.101 49.9788C204.491 48.5088 204.181 46.8788 204.181 45.0988V45.0088C204.181 43.3488 204.461 41.7888 205.011 40.3288C205.561 38.8688 206.341 37.5988 207.351 36.4988C208.361 35.4088 209.541 34.5488 210.911 33.9188C212.281 33.2888 213.801 32.9788 215.461 32.9788C217.301 32.9788 218.911 33.3088 220.291 33.9888C221.671 34.6588 222.831 35.5588 223.741 36.6988C224.651 37.8388 225.351 39.1588 225.821 40.6588C226.291 42.1588 226.521 43.7388 226.521 45.3988C226.521 45.6288 226.521 45.8688 226.501 46.1188C226.481 46.3688 226.461 46.6188 226.431 46.8788H209.471C209.761 48.7788 210.511 50.2188 211.721 51.2288C212.931 52.2388 214.391 52.7388 216.111 52.7388C217.421 52.7388 218.561 52.5088 219.521 52.0388C220.481 51.5688 221.431 50.8888 222.361 49.9888L225.461 52.7388C224.351 54.0488 223.031 55.0988 221.501 55.8888C219.971 56.6788 218.141 57.0688 216.011 57.0688L216.031 57.0788ZM221.271 43.3988C221.181 42.5488 220.991 41.7588 220.701 41.0188C220.411 40.2788 220.021 39.6388 219.521 39.0988C219.021 38.5588 218.431 38.1288 217.751 37.8088C217.061 37.4888 216.291 37.3288 215.411 37.3288C213.781 37.3288 212.431 37.8888 211.371 39.0088C210.311 40.1288 209.661 41.5988 209.421 43.3988H221.271Z" fill="#111111"/>
<path d="M216.031 57.4588C214.331 57.4588 212.711 57.1588 211.231 56.5588C209.751 55.9588 208.441 55.1088 207.351 54.0288C206.261 52.9488 205.381 51.6388 204.751 50.1188C204.121 48.6088 203.801 46.9188 203.801 45.0988C203.801 43.2788 204.091 41.6888 204.661 40.1988C205.231 38.6988 206.041 37.3788 207.071 36.2488C208.111 35.1288 209.341 34.2288 210.751 33.5788C212.161 32.9288 213.751 32.6088 215.451 32.6088C217.331 32.6088 219.021 32.9588 220.441 33.6488C221.871 34.3388 223.081 35.2888 224.021 36.4588C224.961 37.6288 225.681 38.9988 226.161 40.5388C226.631 42.0688 226.881 43.7088 226.881 45.3988C226.881 45.6388 226.881 45.8888 226.861 46.1388C226.841 46.3988 226.821 46.6588 226.791 46.9288L226.751 47.2588H209.901C210.221 48.8388 210.901 50.0788 211.941 50.9488C213.071 51.8888 214.471 52.3688 216.091 52.3688C217.341 52.3688 218.431 52.1488 219.341 51.7088C220.261 51.2588 221.191 50.5888 222.091 49.7188L222.341 49.4788L225.981 52.7088L225.741 52.9888C224.601 54.3288 223.231 55.4188 221.671 56.2288C220.091 57.0388 218.191 57.4488 216.011 57.4488L216.031 57.4588ZM215.461 33.3688C213.861 33.3688 212.381 33.6688 211.071 34.2788C209.751 34.8788 208.591 35.7188 207.631 36.7688C206.661 37.8188 205.901 39.0688 205.371 40.4788C204.831 41.8888 204.561 43.4188 204.561 45.0188C204.561 46.8288 204.861 48.4188 205.451 49.8388C206.041 51.2588 206.861 52.4888 207.881 53.4988C208.901 54.5088 210.131 55.3088 211.521 55.8688C212.911 56.4288 214.431 56.7188 216.041 56.7188C218.101 56.7188 219.891 56.3388 221.351 55.5788C222.721 54.8788 223.931 53.9388 224.951 52.7988L222.381 50.5188C221.501 51.3288 220.601 51.9588 219.691 52.3988C218.681 52.8888 217.481 53.1388 216.121 53.1388C214.321 53.1388 212.761 52.5988 211.491 51.5388C210.211 50.4788 209.411 48.9388 209.111 46.9588L209.041 46.5288H226.101C226.111 46.3888 226.121 46.2488 226.131 46.1188C226.141 45.8788 226.151 45.6488 226.151 45.4188C226.151 43.8088 225.921 42.2488 225.471 40.7888C225.021 39.3388 224.341 38.0488 223.461 36.9588C222.581 35.8688 221.461 34.9988 220.131 34.3488C218.801 33.7088 217.231 33.3788 215.461 33.3788V33.3688ZM221.691 43.7688H209.001L209.051 43.3488C209.291 41.4688 209.981 39.9188 211.091 38.7488C212.221 37.5488 213.681 36.9488 215.411 36.9488C216.331 36.9488 217.171 37.1188 217.911 37.4688C218.641 37.8088 219.271 38.2688 219.801 38.8488C220.321 39.4188 220.751 40.0988 221.051 40.8888C221.351 41.6688 221.551 42.4988 221.641 43.3688L221.681 43.7788L221.691 43.7688ZM209.861 43.0188H220.851C220.751 42.3688 220.591 41.7388 220.361 41.1488C220.091 40.4488 219.711 39.8488 219.251 39.3388C218.791 38.8388 218.231 38.4288 217.601 38.1388C216.971 37.8388 216.231 37.6888 215.421 37.6888C213.881 37.6888 212.651 38.1988 211.651 39.2588C210.731 40.2288 210.131 41.4888 209.871 43.0188H209.861Z" fill="#111111"/>
<path d="M244.431 25.9491H255.841C258.231 25.9491 260.421 26.3391 262.421 27.109C264.421 27.879 266.141 28.949 267.581 30.3189C269.021 31.6889 270.141 33.2988 270.921 35.1488C271.711 36.9987 272.101 39.0086 272.101 41.1586V41.2486C272.101 43.4085 271.711 45.4184 270.921 47.2784C270.131 49.1483 269.021 50.7582 267.581 52.1282C266.141 53.4982 264.421 54.5781 262.421 55.3681C260.421 56.1581 258.231 56.548 255.841 56.548H244.431V25.9391V25.9491ZM255.801 51.7082C257.401 51.7082 258.861 51.4582 260.171 50.9382C261.481 50.4283 262.601 49.7083 263.521 48.7883C264.441 47.8683 265.151 46.7684 265.661 45.4984C266.171 44.2285 266.431 42.8385 266.431 41.3486V41.2586C266.431 39.7686 266.171 38.3787 265.661 37.0887C265.151 35.7987 264.441 34.6988 263.521 33.7788C262.601 32.8588 261.491 32.1289 260.171 31.6089C258.861 31.0789 257.401 30.8189 255.801 30.8189H249.771V51.7182H255.801V51.7082Z" fill="#111111"/>
<path d="M255.841 56.928H244.051V25.5691H255.841C258.261 25.5691 260.521 25.9691 262.561 26.749C264.591 27.539 266.371 28.639 267.841 30.0389C269.311 31.4389 270.471 33.1088 271.271 34.9988C272.071 36.8887 272.481 38.9586 272.481 41.1586C272.481 43.3585 272.071 45.5184 271.271 47.4284C270.471 49.3283 269.311 51.0082 267.841 52.4082C266.371 53.8081 264.591 54.9181 262.561 55.7181C260.531 56.518 258.271 56.928 255.841 56.928ZM244.801 56.1781H255.841C258.171 56.1781 260.341 55.7881 262.281 55.0281C264.221 54.2581 265.921 53.1981 267.321 51.8682C268.721 50.5382 269.821 48.9483 270.581 47.1384C271.341 45.3284 271.731 43.3485 271.731 41.2486C271.731 39.1486 271.341 37.0887 270.581 35.2988C269.821 33.5088 268.721 31.9189 267.321 30.5889C265.921 29.259 264.231 28.209 262.281 27.449C260.341 26.699 258.171 26.3191 255.841 26.3191H244.801V56.1781ZM255.801 52.0782H249.391V30.4289H255.801C257.441 30.4289 258.961 30.7089 260.311 31.2489C261.661 31.7889 262.831 32.5488 263.781 33.5088C264.731 34.4588 265.481 35.6187 266.001 36.9487C266.531 38.2786 266.791 39.7286 266.791 41.2585C266.791 42.8785 266.521 44.3184 266.001 45.6384C265.471 46.9584 264.731 48.1083 263.781 49.0583C262.831 50.0183 261.661 50.7682 260.311 51.2982C258.961 51.8282 257.451 52.0882 255.801 52.0882V52.0782ZM250.141 51.3282H255.801C257.351 51.3282 258.781 51.0782 260.041 50.5882C261.301 50.0982 262.381 49.3983 263.261 48.5183C264.141 47.6383 264.831 46.5684 265.321 45.3484C265.811 44.1285 266.061 42.7785 266.061 41.3385C266.061 39.8186 265.811 38.4586 265.321 37.2187C264.831 35.9887 264.141 34.9088 263.261 34.0288C262.381 33.1488 261.301 32.4489 260.041 31.9389C258.781 31.4289 257.361 31.1789 255.811 31.1789H250.151V51.3282H250.141Z" fill="#111111"/>
<path d="M292.311 56.5588V53.7188C291.521 54.6488 290.521 55.4388 289.291 56.0788C288.071 56.7188 286.581 57.0388 284.831 57.0388C283.721 57.0388 282.671 56.8888 281.681 56.5788C280.691 56.2688 279.821 55.8188 279.081 55.2188C278.341 54.6188 277.741 53.8788 277.291 52.9888C276.841 52.0988 276.611 51.0688 276.611 49.9088V49.8188C276.611 48.5388 276.841 47.4188 277.311 46.4788C277.781 45.5288 278.431 44.7488 279.261 44.1188C280.091 43.4888 281.081 43.0288 282.231 42.7188C283.381 42.4088 284.631 42.2588 285.971 42.2588C287.311 42.2588 288.561 42.3488 289.531 42.5188C290.501 42.6888 291.451 42.9288 292.351 43.2188V42.7788C292.351 41.1788 291.861 39.9488 290.891 39.1088C289.911 38.2688 288.511 37.8388 286.671 37.8388C285.361 37.8388 284.191 37.9688 283.171 38.2288C282.151 38.4888 281.111 38.8388 280.071 39.2788L278.631 35.0388C279.911 34.4588 281.221 33.9888 282.571 33.6388C283.911 33.2888 285.531 33.1188 287.421 33.1188C290.861 33.1188 293.411 33.9688 295.071 35.6788C296.731 37.3888 297.561 39.7788 297.561 42.8688V56.5588H292.311ZM292.441 46.8988C291.771 46.6388 290.981 46.4188 290.061 46.2388C289.141 46.0688 288.171 45.9788 287.151 45.9788C285.491 45.9788 284.191 46.2988 283.261 46.9388C282.331 47.5788 281.861 48.4588 281.861 49.5588V49.6488C281.861 50.7588 282.291 51.5988 283.151 52.1888C284.011 52.7788 285.071 53.0588 286.321 53.0588C287.201 53.0588 288.001 52.9388 288.751 52.7088C289.501 52.4788 290.141 52.1488 290.701 51.7288C291.251 51.3088 291.681 50.7988 291.991 50.1988C292.301 49.5988 292.451 48.9388 292.451 48.2088V46.8988H292.441Z" fill="#111111"/>
<path d="M284.831 57.4088C283.691 57.4088 282.591 57.2488 281.571 56.9288C280.541 56.6088 279.621 56.1288 278.841 55.5088C278.061 54.8788 277.421 54.0888 276.951 53.1588C276.471 52.2188 276.231 51.1288 276.231 49.9088C276.231 48.4888 276.481 47.3088 276.971 46.3088C277.461 45.3188 278.151 44.4788 279.031 43.8188C279.901 43.1688 280.941 42.6688 282.131 42.3588C283.311 42.0488 284.601 41.8888 285.961 41.8888C287.321 41.8888 288.591 41.9788 289.591 42.1588C290.401 42.3088 291.201 42.4888 291.971 42.7188C291.961 41.2488 291.521 40.1688 290.641 39.3988C289.741 38.6188 288.401 38.2188 286.671 38.2188C285.401 38.2188 284.251 38.3488 283.271 38.5988C282.271 38.8588 281.241 39.2088 280.221 39.6288L279.851 39.7888L278.171 34.8488L278.481 34.7088C279.771 34.1188 281.121 33.6488 282.481 33.2888C283.841 32.9288 285.511 32.7488 287.431 32.7488C290.961 32.7488 293.621 33.6488 295.351 35.4188C297.071 37.1888 297.951 39.6988 297.951 42.8688V56.9288H291.951V54.6588C291.251 55.3288 290.431 55.9088 289.481 56.4088C288.211 57.0788 286.651 57.4088 284.851 57.4088H284.831ZM285.971 42.6388C284.671 42.6388 283.441 42.7888 282.331 43.0888C281.231 43.3788 280.281 43.8288 279.491 44.4288C278.711 45.0188 278.091 45.7688 277.661 46.6588C277.221 47.5488 277.001 48.6188 277.001 49.8388C277.001 51.0588 277.211 52.0088 277.641 52.8388C278.061 53.6788 278.641 54.3888 279.331 54.9488C280.031 55.5188 280.871 55.9488 281.811 56.2388C282.761 56.5288 283.781 56.6788 284.851 56.6788C286.531 56.6788 287.971 56.3688 289.141 55.7588C290.311 55.1388 291.291 54.3788 292.041 53.4888L292.701 52.7088V56.1988H297.201V42.8888C297.201 39.9188 296.401 37.5788 294.811 35.9588C293.231 34.3388 290.741 33.5188 287.431 33.5188C285.571 33.5188 283.971 33.6888 282.671 34.0288C281.461 34.3488 280.261 34.7588 279.101 35.2688L280.311 38.8088C281.241 38.4388 282.181 38.1288 283.091 37.8888C284.141 37.6188 285.351 37.4788 286.681 37.4788C288.601 37.4788 290.101 37.9388 291.141 38.8388C292.201 39.7588 292.731 41.0888 292.731 42.7988V43.7488L292.241 43.5888C291.351 43.2988 290.421 43.0688 289.471 42.8988C288.521 42.7288 287.341 42.6388 285.971 42.6388ZM286.321 53.4388C284.991 53.4388 283.861 53.1188 282.941 52.4988C281.981 51.8488 281.491 50.8888 281.491 49.6488C281.491 48.3288 282.021 47.3388 283.051 46.6288C284.041 45.9488 285.421 45.5988 287.151 45.5988C288.191 45.5988 289.191 45.6888 290.131 45.8688C291.061 46.0488 291.891 46.2688 292.581 46.5388L292.821 46.6288V48.1988C292.821 48.9888 292.651 49.7088 292.321 50.3588C291.991 50.9988 291.521 51.5588 290.921 52.0188C290.331 52.4688 289.641 52.8188 288.861 53.0588C288.081 53.2988 287.231 53.4288 286.321 53.4288V53.4388ZM287.151 46.3488C285.571 46.3488 284.341 46.6488 283.471 47.2488C282.641 47.8188 282.231 48.5788 282.231 49.5588C282.231 50.6288 282.601 51.3588 283.351 51.8688C284.141 52.4088 285.141 52.6788 286.311 52.6788C287.141 52.6788 287.921 52.5688 288.621 52.3488C289.321 52.1288 289.941 51.8188 290.451 51.4288C290.961 51.0388 291.361 50.5688 291.631 50.0288C291.911 49.4888 292.051 48.8788 292.051 48.2088V47.1588C291.451 46.9488 290.751 46.7588 289.971 46.6088C289.081 46.4388 288.121 46.3488 287.131 46.3488H287.151Z" fill="#111111"/>
<path d="M308.751 63.6877C307.641 63.6877 306.661 63.5677 305.801 63.3177C304.941 63.0678 304.101 62.7278 303.291 62.2878L305.081 58.3579C305.581 58.6179 306.081 58.8279 306.591 58.9879C307.101 59.1479 307.631 59.2279 308.191 59.2279C308.951 59.2279 309.571 59.0379 310.071 58.6579C310.571 58.2779 311.031 57.5779 311.471 56.558L301.851 33.4688H307.491L314.051 50.6082L320.041 33.4688H325.551L316.371 57.2079C315.901 58.3979 315.421 59.4079 314.931 60.2278C314.431 61.0478 313.881 61.7078 313.271 62.2178C312.661 62.7278 311.991 63.0977 311.261 63.3377C310.531 63.5677 309.701 63.6877 308.771 63.6877H308.751Z" fill="#111111"/>
<path d="M308.751 64.0577C307.611 64.0577 306.581 63.9277 305.701 63.6677C304.821 63.4177 303.951 63.0577 303.111 62.6077L302.801 62.4378L304.901 57.8179L305.251 58.0079C305.721 58.2579 306.211 58.4579 306.701 58.6179C307.171 58.7679 307.671 58.8379 308.181 58.8379C308.861 58.8379 309.401 58.6779 309.831 58.3479C310.251 58.0279 310.661 57.4179 311.051 56.548L301.281 33.0887H307.741L314.031 49.5082L319.771 33.0887H326.091L316.711 57.3379C316.241 58.5479 315.741 59.5778 315.241 60.4178C314.731 61.2678 314.141 61.9678 313.501 62.4977C312.851 63.0377 312.141 63.4377 311.361 63.6777C310.591 63.9177 309.721 64.0477 308.751 64.0477V64.0577ZM303.771 62.1178C304.461 62.4677 305.171 62.7477 305.901 62.9577C306.721 63.1977 307.681 63.3177 308.751 63.3177C309.641 63.3177 310.441 63.2077 311.131 62.9877C311.811 62.7677 312.451 62.4178 313.021 61.9378C313.601 61.4578 314.131 60.8178 314.601 60.0378C315.081 59.2379 315.561 58.2479 316.011 57.0779L325.001 33.8487H320.301L314.061 51.7081L307.231 33.8487H302.411L311.871 56.5579L311.811 56.708C311.341 57.7979 310.851 58.5379 310.291 58.9579C309.731 59.3879 309.021 59.6078 308.181 59.6078C307.591 59.6078 307.021 59.5179 306.471 59.3479C306.061 59.2179 305.651 59.0579 305.251 58.8679L303.771 62.1278V62.1178Z" fill="#111111"/>
<path d="M338.191 56.9987C336.531 56.9987 334.851 56.7087 333.141 56.1187C331.431 55.5287 329.851 54.6587 328.401 53.5087L330.761 49.9187C332.011 50.8487 333.291 51.5587 334.591 52.0387C335.891 52.5187 337.131 52.7587 338.331 52.7587C339.531 52.7587 340.351 52.5287 340.971 52.0787C341.601 51.6287 341.911 51.0287 341.911 50.2687V50.1787C341.911 49.7387 341.771 49.3687 341.491 49.0487C341.211 48.7287 340.831 48.4487 340.351 48.2187C339.871 47.9887 339.311 47.7687 338.691 47.5687C338.061 47.3687 337.411 47.1587 336.741 46.9587C335.891 46.7287 335.041 46.4487 334.181 46.1287C333.321 45.8087 332.551 45.3987 331.861 44.8887C331.171 44.3787 330.611 43.7487 330.181 42.9887C329.741 42.2287 329.521 41.2987 329.521 40.1987V40.1087C329.521 39.0287 329.731 38.0587 330.151 37.1887C330.571 36.3187 331.161 35.5787 331.901 34.9587C332.641 34.3487 333.521 33.8787 334.521 33.5587C335.531 33.2387 336.601 33.0787 337.731 33.0787C339.191 33.0787 340.661 33.3187 342.151 33.7887C343.641 34.2587 344.991 34.9087 346.221 35.7287L344.121 39.5087C343.011 38.8387 341.891 38.3087 340.751 37.9087C339.611 37.5087 338.561 37.3187 337.601 37.3187C336.581 37.3187 335.791 37.5387 335.221 37.9687C334.651 38.4087 334.371 38.9587 334.371 39.6287V39.7187C334.371 40.1287 334.521 40.4787 334.811 40.7887C335.101 41.0987 335.491 41.3687 335.971 41.6187C336.451 41.8687 337.011 42.0987 337.631 42.3187C338.261 42.5387 338.901 42.7487 339.581 42.9487C340.431 43.2087 341.271 43.5187 342.121 43.8687C342.961 44.2187 343.731 44.6487 344.411 45.1587C345.091 45.6687 345.661 46.2887 346.091 47.0087C346.531 47.7387 346.751 48.6187 346.751 49.6687V49.7587C346.751 50.9787 346.531 52.0387 346.091 52.9487C345.651 53.8487 345.051 54.5987 344.281 55.1987C343.511 55.7987 342.601 56.2487 341.551 56.5487C340.501 56.8487 339.381 57.0087 338.181 57.0087L338.191 56.9987Z" fill="#111111"/>
<path d="M338.191 57.3688C336.501 57.3688 334.761 57.0688 333.021 56.4688C331.281 55.8688 329.651 54.9688 328.171 53.7988L327.901 53.5888L330.671 49.3788L330.991 49.6188C332.211 50.5288 333.471 51.2188 334.721 51.6888C335.971 52.1488 337.181 52.3888 338.331 52.3888C339.381 52.3888 340.201 52.1888 340.761 51.7788C341.291 51.3988 341.541 50.9088 341.541 50.2688C341.541 49.8388 341.431 49.5488 341.221 49.2888C340.981 49.0088 340.641 48.7588 340.201 48.5488C339.731 48.3188 339.191 48.1088 338.591 47.9188C337.961 47.7188 337.321 47.5088 336.651 47.3088C335.821 47.0788 334.951 46.7988 334.071 46.4788C333.181 46.1488 332.371 45.7088 331.661 45.1888C330.941 44.6488 330.341 43.9788 329.881 43.1788C329.411 42.3688 329.171 41.3688 329.171 40.1988C329.171 39.0288 329.401 37.9488 329.841 37.0288C330.281 36.1088 330.901 35.3188 331.691 34.6788C332.471 34.0388 333.391 33.5488 334.441 33.2188C336.811 32.4688 339.591 32.5888 342.301 33.4488C343.821 33.9288 345.221 34.5988 346.461 35.4388L346.751 35.6288L344.291 40.0488L343.961 39.8488C342.881 39.1988 341.771 38.6688 340.671 38.2888C338.461 37.5288 336.481 37.5388 335.491 38.2888C335.011 38.6488 334.781 39.0988 334.781 39.6488C334.781 40.0488 334.891 40.3088 335.111 40.5488C335.371 40.8188 335.731 41.0788 336.171 41.2988C336.631 41.5388 337.171 41.7688 337.781 41.9788C338.401 42.1988 339.051 42.4088 339.711 42.6088C340.561 42.8688 341.421 43.1888 342.281 43.5388C343.151 43.8988 343.951 44.3488 344.661 44.8688C345.381 45.4088 345.981 46.0688 346.441 46.8288C346.911 47.6088 347.151 48.5688 347.151 49.6788C347.151 51.0388 346.921 52.1688 346.461 53.1188C346.001 54.0688 345.351 54.8688 344.541 55.4988C343.741 56.1188 342.781 56.5988 341.681 56.9188C340.601 57.2288 339.431 57.3888 338.211 57.3888L338.191 57.3688ZM328.901 53.4188C330.251 54.4388 331.711 55.2188 333.261 55.7588C336.101 56.7388 339.021 56.8788 341.451 56.1788C342.451 55.8888 343.331 55.4588 344.061 54.8888C344.781 54.3288 345.361 53.6188 345.771 52.7788C346.181 51.9288 346.391 50.9188 346.391 49.7588C346.391 48.6988 346.191 47.8688 345.791 47.2088C345.381 46.5288 344.851 45.9388 344.201 45.4588C343.541 44.9688 342.801 44.5588 341.991 44.2188C341.151 43.8788 340.311 43.5688 339.491 43.3188C338.821 43.1188 338.161 42.8988 337.531 42.6788C336.891 42.4588 336.311 42.2188 335.821 41.9588C335.301 41.6888 334.881 41.3888 334.561 41.0588C334.201 40.6788 334.021 40.2388 334.021 39.7288C334.021 38.8488 334.361 38.1988 335.021 37.6888C336.231 36.7588 338.441 36.7188 340.901 37.5688C341.941 37.9288 342.981 38.4088 344.001 38.9988L345.741 35.8588C344.631 35.1488 343.391 34.5688 342.061 34.1488C339.501 33.3388 336.881 33.2188 334.661 33.9188C333.701 34.2188 332.861 34.6688 332.161 35.2488C331.461 35.8288 330.911 36.5288 330.511 37.3488C330.111 38.1688 329.911 39.0988 329.911 40.1088C329.911 41.2288 330.111 42.1088 330.511 42.7988C330.921 43.5088 331.451 44.1088 332.091 44.5888C332.741 45.0688 333.491 45.4788 334.311 45.7788C335.171 46.0988 336.021 46.3688 336.841 46.5988C337.521 46.8088 338.171 47.0088 338.801 47.2188C339.431 47.4288 340.011 47.6488 340.511 47.8888C341.031 48.1388 341.461 48.4488 341.771 48.8088C342.111 49.1988 342.281 49.6588 342.281 50.1888C342.281 51.1588 341.911 51.8688 341.181 52.3888C340.491 52.8888 339.531 53.1388 338.321 53.1388C337.111 53.1388 335.781 52.8888 334.451 52.3888C333.241 51.9388 332.031 51.2888 330.851 50.4488L328.891 53.4188H328.901Z" fill="#111111"/>
</svg>
