<svg width="321" height="59" viewBox="0 0 321 59" fill="none" xmlns="http://www.w3.org/2000/svg">
<g clip-path="url(#clip0_1891_15580)">
<path d="M31 1.58012L33.21 0.843489C42.47 -2.24691 52.3515 3.45623 54.3083 13.0267L54.7744 15.3056L56.5182 16.848C63.8273 23.3223 63.8273 34.7343 56.5182 41.2086L54.7744 42.7509L54.3083 45.0299C52.3515 54.5946 42.47 60.2977 33.21 57.2131L31 56.4764L28.79 57.2131C19.53 60.3035 9.64847 54.6003 7.69173 45.0299L7.22556 42.7509L5.48176 41.2086C-1.82725 34.7343 -1.82725 23.3223 5.48176 16.848L7.22556 15.3056L7.69173 13.0267C9.64847 3.46198 19.53 -2.24116 28.7958 0.843489L31.0058 1.58012H31Z" fill="#76D1FF"/>
<path d="M27.5399 26.505C25.7443 26.505 24.1732 25.8834 23.0509 24.7094C21.9229 23.5296 21.4165 21.9469 21.6524 20.3643C21.8769 18.8622 22.7229 17.5443 24.0351 16.6522L26.0379 19.5873C25.5544 19.9154 25.2436 20.3815 25.1688 20.8938C25.094 21.3829 25.2609 21.8779 25.6177 22.252C26.1414 22.7929 26.9932 23.0347 28.0291 22.9253C28.8348 22.839 29.4967 22.6145 30.3024 22.1541L30.5384 22.016L32.3512 25.072C32.2591 25.1238 32.1671 25.1813 32.075 25.2331L31.7815 24.7267L32.0692 25.2331C30.8319 25.941 29.6981 26.3151 28.4032 26.4532C28.1097 26.482 27.8219 26.4992 27.5399 26.4992V26.505Z" fill="#111111"/>
<path d="M34.4115 26.505C32.6159 26.505 31.0448 25.8834 29.9225 24.7094C28.7945 23.5296 28.2881 21.9469 28.524 20.3643C28.7485 18.8622 29.5945 17.5443 30.9066 16.6522L32.9094 19.5873C32.426 19.9154 32.1152 20.3815 32.0404 20.8938C31.9656 21.3829 32.1325 21.8779 32.4893 22.252C33.013 22.7987 33.8705 23.0347 34.9007 22.9253C35.9827 22.8102 36.7423 22.4419 37.6804 21.8491L39.5739 24.8533C38.4401 25.5669 37.1337 26.2575 35.2748 26.4532C34.9813 26.482 34.6935 26.4992 34.4115 26.4992V26.505Z" fill="#111111"/>
<path d="M90.3799 10.69H95.7099V36.4392H111.8V41.289H90.3799V10.6801V10.69Z" fill="#111111"/>
<path d="M112.17 41.669H90V10.3101H96.08V36.0592H112.17V41.659V41.669ZM90.75 40.919H111.42V36.8192H95.33V11.07H90.75V40.929V40.919Z" fill="#111111"/>
<path d="M117.08 9.64001H122.81V14.6699H117.08V9.64001ZM117.3 18.2097H122.63V41.2989H117.3V18.2097Z" fill="#111111"/>
<path d="M123.01 41.6689H116.93V17.8297H123.01V41.6689ZM117.68 40.919H122.26V18.5797H117.68V40.919ZM123.18 15.0498H116.7V9.27002H123.18V15.0498ZM117.46 14.2998H122.44V10.02H117.46V14.2998Z" fill="#111111"/>
<path d="M137.45 41.689C136.49 41.689 135.59 41.569 134.77 41.339C133.95 41.109 133.23 40.729 132.63 40.199C132.03 39.6691 131.57 38.9791 131.24 38.1191C130.92 37.2591 130.75 36.1892 130.75 34.9092V22.7596H127.82V18.2098H130.75V11.87H136.08V18.2098H142.29V22.7596H136.08V34.0792C136.08 35.0992 136.33 35.8392 136.82 36.2892C137.31 36.7391 138.02 36.9691 138.92 36.9691C140.06 36.9691 141.15 36.7091 142.2 36.1792V40.509C141.53 40.889 140.82 41.179 140.06 41.389C139.3 41.589 138.43 41.699 137.44 41.699L137.45 41.689Z" fill="#111111"/>
<path d="M137.45 42.069C136.46 42.069 135.52 41.949 134.67 41.709C133.8 41.459 133.03 41.049 132.39 40.499C131.74 39.939 131.24 39.1891 130.9 38.2691C130.56 37.3691 130.39 36.2492 130.39 34.9192V23.1396H127.46V17.8398H130.39V11.5H136.47V17.8398H142.68V23.1396H136.47V34.0892C136.47 34.9992 136.68 35.6492 137.09 36.0192C137.51 36.3992 138.13 36.5992 138.94 36.5992C140.01 36.5992 141.06 36.3492 142.05 35.8492L142.59 35.5792V40.729L142.4 40.839C141.7 41.229 140.95 41.539 140.17 41.749C139.38 41.959 138.47 42.069 137.45 42.069ZM128.21 22.3896H131.14V34.9192C131.14 36.1492 131.3 37.1891 131.6 37.9991C131.9 38.7991 132.33 39.4491 132.88 39.929C133.44 40.409 134.11 40.769 134.88 40.989C136.48 41.439 138.55 41.409 139.98 41.029C140.63 40.859 141.26 40.609 141.84 40.299V36.7792C140.91 37.1591 139.93 37.3591 138.94 37.3591C137.95 37.3591 137.15 37.0991 136.59 36.5791C136.02 36.0592 135.72 35.2192 135.72 34.0892V22.3896H141.93V18.5898H135.72V12.25H131.14V18.5898H128.21V22.3896Z" fill="#111111"/>
<path d="M155.56 41.689C154.6 41.689 153.7 41.569 152.88 41.339C152.06 41.109 151.34 40.729 150.74 40.199C150.14 39.6691 149.68 38.9791 149.35 38.1191C149.03 37.2591 148.86 36.1892 148.86 34.9092V22.7596H145.93V18.2098H148.86V11.87H154.19V18.2098H160.4V22.7596H154.19V34.0792C154.19 35.0992 154.44 35.8392 154.93 36.2892C155.42 36.7391 156.13 36.9691 157.03 36.9691C158.17 36.9691 159.26 36.7091 160.31 36.1792V40.509C159.64 40.889 158.93 41.179 158.17 41.389C157.41 41.589 156.54 41.699 155.55 41.699L155.56 41.689Z" fill="#111111"/>
<path d="M155.56 42.069C154.57 42.069 153.63 41.949 152.78 41.709C151.91 41.459 151.14 41.049 150.5 40.499C149.85 39.939 149.35 39.1891 149.01 38.2691C148.67 37.3691 148.5 36.2492 148.5 34.9192V23.1396H145.57V17.8398H148.5V11.5H154.58V17.8398H160.79V23.1396H154.58V34.0892C154.58 34.9992 154.79 35.6492 155.2 36.0192C155.62 36.3992 156.24 36.5992 157.05 36.5992C158.12 36.5992 159.17 36.3492 160.16 35.8492L160.7 35.5792V40.729L160.51 40.839C159.81 41.229 159.06 41.539 158.28 41.749C157.49 41.959 156.58 42.069 155.56 42.069ZM146.32 22.3896H149.25V34.9192C149.25 36.1492 149.41 37.1891 149.71 37.9991C150.01 38.7991 150.44 39.4491 150.99 39.929C151.55 40.409 152.22 40.769 152.99 40.989C154.59 41.439 156.66 41.409 158.09 41.029C158.74 40.859 159.37 40.609 159.95 40.299V36.7792C159.02 37.1591 158.04 37.3591 157.05 37.3591C156.06 37.3591 155.26 37.0991 154.7 36.5791C154.13 36.0592 153.83 35.2192 153.83 34.0892V22.3896H160.04V18.5898H153.83V12.25H149.25V18.5898H146.32V22.3896Z" fill="#111111"/>
<path d="M166.17 9.38H171.5V41.2989H166.17V9.38Z" fill="#111111"/>
<path d="M171.88 41.6689H165.8V9H171.88V41.6689ZM166.55 40.9189H171.13V9.74997H166.55V40.9189Z" fill="#111111"/>
<path d="M189.12 41.8197C187.46 41.8197 185.91 41.5297 184.46 40.9497C183.02 40.3697 181.76 39.5497 180.7 38.4997C179.64 37.4497 178.8 36.1897 178.19 34.7197C177.58 33.2497 177.27 31.6197 177.27 29.8397V29.7497C177.27 28.0897 177.55 26.5297 178.1 25.0697C178.65 23.6097 179.43 22.3397 180.44 21.2397C181.45 20.1497 182.63 19.2897 184 18.6597C185.37 18.0297 186.89 17.7197 188.55 17.7197C190.39 17.7197 192 18.0497 193.38 18.7297C194.76 19.3997 195.92 20.2997 196.83 21.4397C197.74 22.5797 198.44 23.8997 198.91 25.3997C199.38 26.8997 199.61 28.4797 199.61 30.1397C199.61 30.3697 199.61 30.6097 199.59 30.8597C199.57 31.1097 199.55 31.3597 199.52 31.6197H182.56C182.85 33.5197 183.6 34.9597 184.81 35.9697C186.02 36.9797 187.48 37.4797 189.2 37.4797C190.51 37.4797 191.65 37.2497 192.61 36.7797C193.57 36.3097 194.52 35.6297 195.45 34.7297L198.55 37.4797C197.44 38.7897 196.12 39.8397 194.59 40.6297C193.06 41.4197 191.23 41.8097 189.1 41.8097L189.12 41.8197ZM194.36 28.1397C194.27 27.2897 194.08 26.4997 193.79 25.7597C193.5 25.0197 193.11 24.3797 192.61 23.8397C192.11 23.2997 191.52 22.8697 190.84 22.5497C190.15 22.2297 189.38 22.0697 188.5 22.0697C186.87 22.0697 185.52 22.6297 184.46 23.7497C183.4 24.8697 182.75 26.3397 182.51 28.1397H194.36Z" fill="#111111"/>
<path d="M189.12 42.1997C187.42 42.1997 185.8 41.8997 184.32 41.2997C182.84 40.6997 181.53 39.8497 180.44 38.7697C179.35 37.6897 178.47 36.3797 177.84 34.8597C177.21 33.3497 176.89 31.6597 176.89 29.8397C176.89 28.0197 177.18 26.4297 177.75 24.9397C178.32 23.4397 179.13 22.1197 180.16 20.9897C181.2 19.8697 182.43 18.9697 183.84 18.3197C185.25 17.6697 186.84 17.3497 188.54 17.3497C190.42 17.3497 192.11 17.6997 193.53 18.3897C194.96 19.0797 196.17 20.0297 197.11 21.1997C198.05 22.3697 198.77 23.7397 199.25 25.2797C199.72 26.8097 199.97 28.4497 199.97 30.1397C199.97 30.3797 199.97 30.6297 199.95 30.8797C199.93 31.1397 199.91 31.3997 199.88 31.6697L199.84 31.9997H182.99C183.31 33.5797 183.99 34.8197 185.03 35.6897C186.16 36.6297 187.56 37.1097 189.18 37.1097C190.43 37.1097 191.52 36.8897 192.43 36.4497C193.35 35.9997 194.28 35.3297 195.18 34.4597L195.43 34.2197L199.07 37.4497L198.83 37.7297C197.69 39.0697 196.32 40.1597 194.76 40.9697C193.18 41.7797 191.28 42.1897 189.1 42.1897L189.12 42.1997ZM188.55 18.1097C186.95 18.1097 185.47 18.4097 184.16 19.0197C182.84 19.6197 181.68 20.4597 180.72 21.5097C179.75 22.5597 178.99 23.8097 178.46 25.2197C177.92 26.6297 177.65 28.1597 177.65 29.7597C177.65 31.5697 177.95 33.1597 178.54 34.5797C179.13 35.9997 179.95 37.2297 180.97 38.2397C181.99 39.2497 183.22 40.0497 184.61 40.6097C186 41.1697 187.52 41.4597 189.13 41.4597C191.19 41.4597 192.98 41.0797 194.44 40.3197C195.81 39.6197 197.02 38.6797 198.04 37.5397L195.47 35.2597C194.59 36.0697 193.69 36.6997 192.78 37.1397C191.77 37.6297 190.57 37.8797 189.21 37.8797C187.41 37.8797 185.85 37.3397 184.58 36.2797C183.3 35.2197 182.5 33.6797 182.2 31.6997L182.13 31.2697H199.19C199.2 31.1297 199.21 30.9897 199.22 30.8597C199.23 30.6197 199.24 30.3897 199.24 30.1597C199.24 28.5497 199.01 26.9897 198.56 25.5297C198.11 24.0797 197.43 22.7897 196.55 21.6997C195.67 20.6097 194.55 19.7397 193.22 19.0897C191.89 18.4497 190.32 18.1197 188.55 18.1197V18.1097ZM194.78 28.5097H182.09L182.14 28.0897C182.38 26.2097 183.07 24.6597 184.18 23.4897C185.31 22.2897 186.77 21.6897 188.5 21.6897C189.42 21.6897 190.26 21.8597 191 22.2097C191.73 22.5497 192.36 23.0097 192.89 23.5897C193.41 24.1597 193.84 24.8397 194.14 25.6297C194.44 26.4097 194.64 27.2397 194.73 28.1097L194.77 28.5197L194.78 28.5097ZM182.95 27.7597H193.94C193.84 27.1097 193.68 26.4797 193.45 25.8897C193.18 25.1897 192.8 24.5897 192.34 24.0797C191.88 23.5797 191.32 23.1697 190.69 22.8797C190.06 22.5797 189.32 22.4297 188.51 22.4297C186.97 22.4297 185.74 22.9397 184.74 23.9997C183.82 24.9697 183.22 26.2297 182.96 27.7597H182.95Z" fill="#111111"/>
<path d="M217.52 10.69H228.93C231.32 10.69 233.51 11.08 235.51 11.85C237.51 12.62 239.23 13.69 240.67 15.0599C242.11 16.4299 243.23 18.0398 244.01 19.8897C244.8 21.7397 245.19 23.7496 245.19 25.8995V25.9895C245.19 28.1495 244.8 30.1594 244.01 32.0193C243.22 33.8893 242.11 35.4992 240.67 36.8692C239.23 38.2391 237.51 39.3191 235.51 40.109C233.51 40.899 231.32 41.289 228.93 41.289H217.52V10.6801V10.69ZM228.89 36.4492C230.49 36.4492 231.95 36.1992 233.26 35.6792C234.57 35.1692 235.69 34.4493 236.61 33.5293C237.53 32.6093 238.24 31.5093 238.75 30.2394C239.26 28.9694 239.52 27.5795 239.52 26.0895V25.9995C239.52 24.5096 239.26 23.1196 238.75 21.8297C238.24 20.5397 237.53 19.4398 236.61 18.5198C235.69 17.5998 234.58 16.8698 233.26 16.3499C231.95 15.8199 230.49 15.5599 228.89 15.5599H222.86V36.4592H228.89V36.4492Z" fill="#111111"/>
<path d="M228.93 41.669H217.14V10.3101H228.93C231.35 10.3101 233.61 10.71 235.65 11.49C237.68 12.28 239.46 13.38 240.93 14.7799C242.4 16.1799 243.56 17.8498 244.36 19.7397C245.16 21.6297 245.57 23.6996 245.57 25.8995C245.57 28.0995 245.16 30.2594 244.36 32.1693C243.56 34.0693 242.4 35.7492 240.93 37.1491C239.46 38.5491 237.68 39.6591 235.65 40.459C233.62 41.259 231.36 41.669 228.93 41.669ZM217.89 40.919H228.93C231.26 40.919 233.43 40.529 235.37 39.769C237.31 38.9991 239.01 37.9391 240.41 36.6092C241.81 35.2792 242.91 33.6893 243.67 31.8793C244.43 30.0694 244.82 28.0894 244.82 25.9895C244.82 23.8896 244.43 21.8297 243.67 20.0397C242.91 18.2498 241.81 16.6598 240.41 15.3299C239.01 13.9999 237.32 12.95 235.37 12.19C233.43 11.44 231.26 11.06 228.93 11.06H217.89V40.919ZM228.89 36.8192H222.48V15.1699H228.89C230.53 15.1699 232.05 15.4499 233.4 15.9899C234.75 16.5298 235.92 17.2898 236.87 18.2498C237.82 19.1997 238.57 20.3597 239.09 21.6897C239.62 23.0196 239.88 24.4696 239.88 25.9995C239.88 27.6195 239.61 29.0594 239.09 30.3794C238.56 31.6993 237.82 32.8493 236.87 33.7993C235.92 34.7592 234.75 35.5092 233.4 36.0392C232.05 36.5692 230.54 36.8291 228.89 36.8291V36.8192ZM223.23 36.0692H228.89C230.44 36.0692 231.87 35.8192 233.13 35.3292C234.39 34.8392 235.47 34.1392 236.35 33.2593C237.23 32.3793 237.92 31.3093 238.41 30.0894C238.9 28.8694 239.15 27.5195 239.15 26.0795C239.15 24.5596 238.9 23.1996 238.41 21.9597C237.92 20.7297 237.23 19.6497 236.35 18.7698C235.47 17.8898 234.39 17.1898 233.13 16.6798C231.87 16.1699 230.45 15.9199 228.9 15.9199H223.24V36.0692H223.23Z" fill="#111111"/>
<path d="M265.4 41.2997V38.4597C264.61 39.3897 263.61 40.1797 262.38 40.8197C261.16 41.4597 259.67 41.7798 257.92 41.7798C256.81 41.7798 255.76 41.6297 254.77 41.3197C253.78 41.0097 252.91 40.5597 252.17 39.9597C251.43 39.3597 250.83 38.6198 250.38 37.7298C249.93 36.8398 249.7 35.8097 249.7 34.6497V34.5598C249.7 33.2798 249.93 32.1597 250.4 31.2197C250.87 30.2697 251.52 29.4897 252.35 28.8597C253.18 28.2297 254.17 27.7697 255.32 27.4597C256.47 27.1497 257.72 26.9997 259.06 26.9997C260.4 26.9997 261.65 27.0898 262.62 27.2598C263.59 27.4298 264.54 27.6697 265.44 27.9597V27.5197C265.44 25.9197 264.95 24.6897 263.98 23.8497C263 23.0097 261.6 22.5797 259.76 22.5797C258.45 22.5797 257.28 22.7097 256.26 22.9697C255.24 23.2297 254.2 23.5797 253.16 24.0197L251.72 19.7798C253 19.1998 254.31 18.7297 255.66 18.3797C257 18.0297 258.62 17.8597 260.51 17.8597C263.95 17.8597 266.5 18.7098 268.16 20.4198C269.82 22.1298 270.65 24.5197 270.65 27.6097V41.2997H265.4ZM265.53 31.6397C264.86 31.3797 264.07 31.1598 263.15 30.9798C262.23 30.8098 261.26 30.7197 260.24 30.7197C258.58 30.7197 257.28 31.0397 256.35 31.6797C255.42 32.3197 254.95 33.1997 254.95 34.2997V34.3897C254.95 35.4997 255.38 36.3397 256.24 36.9297C257.1 37.5197 258.16 37.7997 259.41 37.7997C260.29 37.7997 261.09 37.6798 261.84 37.4498C262.59 37.2198 263.23 36.8897 263.79 36.4697C264.34 36.0497 264.77 35.5397 265.08 34.9397C265.39 34.3397 265.54 33.6798 265.54 32.9498V31.6397H265.53Z" fill="#111111"/>
<path d="M257.92 42.1497C256.78 42.1497 255.68 41.9898 254.66 41.6698C253.63 41.3498 252.71 40.8697 251.93 40.2497C251.15 39.6197 250.51 38.8297 250.04 37.8997C249.56 36.9597 249.32 35.8697 249.32 34.6497C249.32 33.2297 249.57 32.0497 250.06 31.0497C250.55 30.0597 251.24 29.2198 252.12 28.5598C252.99 27.9098 254.03 27.4097 255.22 27.0997C256.4 26.7897 257.69 26.6297 259.05 26.6297C260.41 26.6297 261.68 26.7197 262.68 26.8997C263.49 27.0497 264.29 27.2297 265.06 27.4597C265.05 25.9897 264.61 24.9097 263.73 24.1397C262.83 23.3597 261.49 22.9597 259.76 22.9597C258.49 22.9597 257.34 23.0898 256.36 23.3398C255.36 23.5998 254.33 23.9498 253.31 24.3698L252.94 24.5298L251.26 19.5898L251.57 19.4498C252.86 18.8598 254.21 18.3898 255.57 18.0298C256.93 17.6698 258.6 17.4897 260.52 17.4897C264.05 17.4897 266.71 18.3897 268.44 20.1597C270.16 21.9297 271.04 24.4397 271.04 27.6097V41.6698H265.04V39.3997C264.34 40.0697 263.52 40.6497 262.57 41.1497C261.3 41.8197 259.74 42.1497 257.94 42.1497H257.92ZM259.06 27.3797C257.76 27.3797 256.53 27.5297 255.42 27.8297C254.32 28.1197 253.37 28.5698 252.58 29.1698C251.8 29.7598 251.18 30.5097 250.75 31.3997C250.31 32.2897 250.09 33.3597 250.09 34.5797C250.09 35.7997 250.3 36.7497 250.73 37.5797C251.15 38.4197 251.73 39.1297 252.42 39.6897C253.12 40.2597 253.96 40.6898 254.9 40.9798C255.85 41.2698 256.87 41.4198 257.94 41.4198C259.62 41.4198 261.06 41.1097 262.23 40.4997C263.4 39.8797 264.38 39.1198 265.13 38.2298L265.79 37.4498V40.9397H270.29V27.6297C270.29 24.6597 269.49 22.3198 267.9 20.6998C266.32 19.0798 263.83 18.2598 260.52 18.2598C258.66 18.2598 257.06 18.4297 255.76 18.7697C254.55 19.0897 253.35 19.4998 252.19 20.0098L253.4 23.5497C254.33 23.1797 255.27 22.8697 256.18 22.6297C257.23 22.3597 258.44 22.2197 259.77 22.2197C261.69 22.2197 263.19 22.6797 264.23 23.5797C265.29 24.4997 265.82 25.8297 265.82 27.5397V28.4897L265.33 28.3297C264.44 28.0397 263.51 27.8097 262.56 27.6397C261.61 27.4697 260.43 27.3797 259.06 27.3797ZM259.41 38.1797C258.08 38.1797 256.95 37.8597 256.03 37.2397C255.07 36.5897 254.58 35.6297 254.58 34.3897C254.58 33.0697 255.11 32.0798 256.14 31.3698C257.13 30.6898 258.51 30.3398 260.24 30.3398C261.28 30.3398 262.28 30.4297 263.22 30.6097C264.15 30.7897 264.98 31.0098 265.67 31.2798L265.91 31.3698V32.9397C265.91 33.7297 265.74 34.4497 265.41 35.0997C265.08 35.7397 264.61 36.2998 264.01 36.7598C263.42 37.2098 262.73 37.5597 261.95 37.7997C261.17 38.0397 260.32 38.1698 259.41 38.1698V38.1797ZM260.24 31.0898C258.66 31.0898 257.43 31.3897 256.56 31.9897C255.73 32.5597 255.32 33.3197 255.32 34.2997C255.32 35.3697 255.69 36.0997 256.44 36.6097C257.23 37.1497 258.23 37.4198 259.4 37.4198C260.23 37.4198 261.01 37.3098 261.71 37.0898C262.41 36.8698 263.03 36.5598 263.54 36.1698C264.05 35.7798 264.45 35.3097 264.72 34.7697C265 34.2297 265.14 33.6198 265.14 32.9498V31.8997C264.54 31.6897 263.84 31.4997 263.06 31.3497C262.17 31.1797 261.21 31.0898 260.22 31.0898H260.24Z" fill="#111111"/>
<path d="M281.84 48.4287C280.73 48.4287 279.75 48.3087 278.89 48.0587C278.03 47.8087 277.19 47.4687 276.38 47.0287L278.17 43.0989C278.67 43.3589 279.17 43.5689 279.68 43.7289C280.19 43.8888 280.72 43.9688 281.28 43.9688C282.04 43.9688 282.66 43.7789 283.16 43.3989C283.66 43.0189 284.12 42.3189 284.56 41.2989L274.94 18.2097H280.58L287.14 35.3491L293.13 18.2097H298.64L289.46 41.9489C288.99 43.1389 288.51 44.1488 288.02 44.9688C287.52 45.7888 286.97 46.4488 286.36 46.9587C285.75 47.4687 285.08 47.8387 284.35 48.0787C283.62 48.3087 282.79 48.4287 281.86 48.4287H281.84Z" fill="#111111"/>
<path d="M281.84 48.7987C280.7 48.7987 279.67 48.6687 278.79 48.4087C277.91 48.1587 277.04 47.7987 276.2 47.3487L275.89 47.1787L277.99 42.5589L278.34 42.7489C278.81 42.9989 279.3 43.1988 279.79 43.3588C280.26 43.5088 280.76 43.5788 281.27 43.5788C281.95 43.5788 282.49 43.4189 282.92 43.0889C283.34 42.7689 283.75 42.1589 284.14 41.2889L274.37 17.8297H280.83L287.12 34.2492L292.86 17.8297H299.18L289.8 42.0789C289.33 43.2888 288.83 44.3188 288.33 45.1588C287.82 46.0088 287.23 46.7087 286.59 47.2387C285.94 47.7787 285.23 48.1787 284.45 48.4187C283.68 48.6587 282.81 48.7887 281.84 48.7887V48.7987ZM276.86 46.8587C277.55 47.2087 278.26 47.4887 278.99 47.6987C279.81 47.9387 280.77 48.0587 281.84 48.0587C282.73 48.0587 283.53 47.9487 284.22 47.7287C284.9 47.5087 285.54 47.1587 286.11 46.6787C286.69 46.1988 287.22 45.5588 287.69 44.7788C288.17 43.9788 288.65 42.9889 289.1 41.8189L298.09 18.5897H293.39L287.15 36.4491L280.32 18.5897H275.5L284.96 41.2989L284.9 41.4489C284.43 42.5389 283.94 43.2789 283.38 43.6988C282.82 44.1288 282.11 44.3488 281.27 44.3488C280.68 44.3488 280.11 44.2588 279.56 44.0888C279.15 43.9588 278.74 43.7988 278.34 43.6088L276.86 46.8687V46.8587Z" fill="#111111"/>
<path d="M311.28 41.7397C309.62 41.7397 307.94 41.4497 306.23 40.8597C304.52 40.2697 302.94 39.3997 301.49 38.2497L303.85 34.6597C305.1 35.5897 306.38 36.2997 307.68 36.7797C308.98 37.2597 310.22 37.4997 311.42 37.4997C312.62 37.4997 313.44 37.2697 314.06 36.8197C314.69 36.3697 315 35.7697 315 35.0097V34.9197C315 34.4797 314.86 34.1097 314.58 33.7897C314.3 33.4697 313.92 33.1897 313.44 32.9597C312.96 32.7297 312.4 32.5097 311.78 32.3097C311.15 32.1097 310.5 31.8997 309.83 31.6997C308.98 31.4697 308.13 31.1897 307.27 30.8697C306.41 30.5497 305.64 30.1397 304.95 29.6297C304.26 29.1197 303.7 28.4897 303.27 27.7297C302.83 26.9697 302.61 26.0397 302.61 24.9397V24.8497C302.61 23.7697 302.82 22.7997 303.24 21.9297C303.66 21.0597 304.25 20.3197 304.99 19.6997C305.73 19.0897 306.61 18.6197 307.61 18.2997C308.62 17.9797 309.69 17.8197 310.82 17.8197C312.28 17.8197 313.75 18.0597 315.24 18.5297C316.73 18.9997 318.08 19.6497 319.31 20.4697L317.21 24.2497C316.1 23.5797 314.98 23.0497 313.84 22.6497C312.7 22.2497 311.65 22.0597 310.69 22.0597C309.67 22.0597 308.88 22.2797 308.31 22.7097C307.74 23.1497 307.46 23.6997 307.46 24.3697V24.4597C307.46 24.8697 307.61 25.2197 307.9 25.5297C308.19 25.8397 308.58 26.1097 309.06 26.3597C309.54 26.6097 310.1 26.8397 310.72 27.0597C311.35 27.2797 311.99 27.4897 312.67 27.6897C313.52 27.9497 314.36 28.2597 315.21 28.6097C316.05 28.9597 316.82 29.3897 317.5 29.8997C318.18 30.4097 318.75 31.0297 319.18 31.7497C319.62 32.4797 319.84 33.3597 319.84 34.4097V34.4997C319.84 35.7197 319.62 36.7797 319.18 37.6897C318.74 38.5897 318.14 39.3397 317.37 39.9397C316.6 40.5397 315.69 40.9897 314.64 41.2897C313.59 41.5897 312.47 41.7497 311.27 41.7497L311.28 41.7397Z" fill="#111111"/>
<path d="M311.28 42.1097C309.59 42.1097 307.85 41.8097 306.11 41.2097C304.37 40.6097 302.74 39.7097 301.26 38.5397L300.99 38.3297L303.76 34.1197L304.08 34.3597C305.3 35.2697 306.56 35.9597 307.81 36.4297C309.06 36.8897 310.27 37.1297 311.42 37.1297C312.47 37.1297 313.29 36.9297 313.85 36.5197C314.38 36.1397 314.63 35.6497 314.63 35.0097C314.63 34.5797 314.52 34.2897 314.31 34.0297C314.07 33.7497 313.73 33.4997 313.29 33.2897C312.82 33.0597 312.28 32.8497 311.68 32.6597C311.05 32.4597 310.41 32.2497 309.74 32.0497C308.91 31.8197 308.04 31.5397 307.16 31.2197C306.27 30.8897 305.46 30.4497 304.75 29.9297C304.03 29.3897 303.43 28.7197 302.97 27.9197C302.5 27.1097 302.26 26.1097 302.26 24.9397C302.26 23.7697 302.49 22.6897 302.93 21.7697C303.37 20.8497 303.99 20.0597 304.78 19.4197C305.56 18.7797 306.48 18.2897 307.53 17.9597C309.9 17.2097 312.68 17.3297 315.39 18.1897C316.91 18.6697 318.31 19.3397 319.55 20.1797L319.84 20.3697L317.38 24.7897L317.05 24.5897C315.97 23.9397 314.86 23.4097 313.76 23.0297C311.55 22.2697 309.57 22.2797 308.58 23.0297C308.1 23.3897 307.87 23.8397 307.87 24.3897C307.87 24.7897 307.98 25.0497 308.2 25.2897C308.46 25.5597 308.82 25.8197 309.26 26.0397C309.72 26.2797 310.26 26.5097 310.87 26.7197C311.49 26.9397 312.14 27.1497 312.8 27.3497C313.65 27.6097 314.51 27.9297 315.37 28.2797C316.24 28.6397 317.04 29.0897 317.75 29.6097C318.47 30.1497 319.07 30.8097 319.53 31.5697C320 32.3497 320.24 33.3097 320.24 34.4197C320.24 35.7797 320.01 36.9097 319.55 37.8597C319.09 38.8097 318.44 39.6097 317.63 40.2397C316.83 40.8597 315.87 41.3397 314.77 41.6597C313.69 41.9697 312.52 42.1297 311.3 42.1297L311.28 42.1097ZM301.99 38.1597C303.34 39.1797 304.8 39.9597 306.35 40.4997C309.19 41.4797 312.11 41.6197 314.54 40.9197C315.54 40.6297 316.42 40.1997 317.15 39.6297C317.87 39.0697 318.45 38.3597 318.86 37.5197C319.27 36.6697 319.48 35.6597 319.48 34.4997C319.48 33.4397 319.28 32.6097 318.88 31.9497C318.47 31.2697 317.94 30.6797 317.29 30.1997C316.63 29.7097 315.89 29.2997 315.08 28.9597C314.24 28.6197 313.4 28.3097 312.58 28.0597C311.91 27.8597 311.25 27.6397 310.62 27.4197C309.98 27.1997 309.4 26.9597 308.91 26.6997C308.39 26.4297 307.97 26.1297 307.65 25.7997C307.29 25.4197 307.11 24.9797 307.11 24.4697C307.11 23.5897 307.45 22.9397 308.11 22.4297C309.32 21.4997 311.53 21.4597 313.99 22.3097C315.03 22.6697 316.07 23.1497 317.09 23.7397L318.83 20.5997C317.72 19.8897 316.48 19.3097 315.15 18.8897C312.59 18.0797 309.97 17.9597 307.75 18.6597C306.79 18.9597 305.95 19.4097 305.25 19.9897C304.55 20.5697 304 21.2697 303.6 22.0897C303.2 22.9097 303 23.8397 303 24.8497C303 25.9697 303.2 26.8497 303.6 27.5397C304.01 28.2497 304.54 28.8497 305.18 29.3297C305.83 29.8097 306.58 30.2197 307.4 30.5197C308.26 30.8397 309.11 31.1097 309.93 31.3397C310.61 31.5497 311.26 31.7497 311.89 31.9597C312.52 32.1697 313.1 32.3897 313.6 32.6297C314.12 32.8797 314.55 33.1897 314.86 33.5497C315.2 33.9397 315.37 34.3997 315.37 34.9297C315.37 35.8997 315 36.6097 314.27 37.1297C313.58 37.6297 312.62 37.8797 311.41 37.8797C310.2 37.8797 308.87 37.6297 307.54 37.1297C306.33 36.6797 305.12 36.0297 303.94 35.1897L301.98 38.1597H301.99Z" fill="#111111"/>
</g>
<defs>
<clipPath id="clip0_1891_15580">
<rect width="321" height="59" fill="white"/>
</clipPath>
</defs>
</svg>
